<svg width="20" height="15" viewBox="0 0 20 15" fill="none" xmlns="http://www.w3.org/2000/svg">
<path d="M17.1918 4.94118L15.2265 2.96899C13.8104 1.54799 13.2554 0.783571 12.4886 1.05381C11.5325 1.39077 11.8472 3.51692 11.8472 4.23471C10.3607 4.23471 8.8152 4.10259 7.34985 4.37787C2.51259 5.28664 1 9.2153 1 13.5C2.3691 12.5302 3.73683 11.497 5.38233 11.0476C7.43637 10.4865 9.7304 10.7542 11.8472 10.7542C11.8472 11.472 11.5325 13.5982 12.4886 13.9351C13.3575 14.2413 13.8104 13.4409 15.2265 12.0199L17.1918 10.0477C18.3973 8.838 19 8.2332 19 7.4945C19 6.7558 18.3973 6.1509 17.1918 4.94118Z" stroke="white" stroke-width="1.5" stroke-linecap="round" stroke-linejoin="round"/>
</svg>
