<svg width="20" height="15" viewBox="0 0 20 15" fill="none" xmlns="http://www.w3.org/2000/svg">
<path d="M2.80823 4.94118L4.77353 2.96899C6.18956 1.54799 6.74462 0.783571 7.51139 1.05381C8.4675 1.39077 8.1528 3.51692 8.1528 4.23471C9.6393 4.23471 11.1848 4.10259 12.6502 4.37787C17.4874 5.28664 19 9.2153 19 13.5C17.6309 12.5302 16.2632 11.497 14.6177 11.0476C12.5636 10.4865 10.2696 10.7542 8.1528 10.7542C8.1528 11.472 8.4675 13.5982 7.51139 13.9351C6.64251 14.2413 6.18956 13.4409 4.77353 12.0199L2.80823 10.0477C1.60275 8.838 1 8.2332 1 7.4945C1 6.7558 1.60275 6.1509 2.80823 4.94118Z" stroke="#1B88D3" stroke-width="1.5" stroke-linecap="round" stroke-linejoin="round"/>
</svg>
