<svg width="73" height="61" viewBox="0 0 73 61" fill="none" xmlns="http://www.w3.org/2000/svg">
<path d="M38.0209 5.08337H38.8503C48.7698 5.08337 53.7296 5.08337 57.1739 7.11122C58.161 7.69222 59.037 8.38124 59.7758 9.15739C62.3542 11.8662 62.3542 15.7669 62.3542 23.5682V30.038C62.3542 37.5694 62.3542 41.3349 60.928 44.3425C58.6349 49.1777 53.7855 52.9915 47.6374 54.7948C43.8134 55.9167 39.0252 55.9167 29.4489 55.9167C23.9767 55.9167 21.2407 55.9167 19.0554 55.2757C15.5423 54.2453 12.7712 52.0658 11.4609 49.303C10.6459 47.5844 10.6459 45.4326 10.6459 41.1288V30.5" stroke="#141B34" stroke-width="1.5" stroke-linecap="round" stroke-linejoin="round"/>
<path d="M62.3542 30.5C62.3542 35.179 57.8148 38.9721 52.2154 38.9721C50.1902 38.9721 47.8028 38.6758 45.8337 39.1165C44.0844 39.5082 42.7178 40.6501 42.2491 42.1119C41.7216 43.7573 42.0763 45.7523 42.0763 47.4445C42.0763 52.1235 37.5369 55.9167 31.9375 55.9167" stroke="#141B34" stroke-width="1.5" stroke-linecap="round" stroke-linejoin="round"/>
<path d="M13.6875 11.4375C15.1826 10.1522 19.1618 5.08337 21.2917 5.08337M21.2917 5.08337C23.4215 5.08337 27.4008 10.1522 28.8958 11.4375M21.2917 5.08337V25.4167" stroke="#141B34" stroke-width="1.5" stroke-linecap="round" stroke-linejoin="round"/>
</svg>
