<?xml version="1.0" encoding="utf-8"?>
<!-- Generator: Adobe Illustrator 27.3.1, SVG Export Plug-In . SVG Version: 6.00 Build 0)  -->
<svg version="1.1" id="Layer_1" xmlns="http://www.w3.org/2000/svg" xmlns:xlink="http://www.w3.org/1999/xlink" x="0px" y="0px"
	 viewBox="0 0 128 128" style="enable-background:new 0 0 128 128;" xml:space="preserve">
<style type="text/css">
	.st0{fill:#213655;}
	.st1{fill:none;}
	.st2{fill:#D3C4B3;stroke:#000000;stroke-miterlimit:10;}
	.st3{fill:#2E5C6B;stroke:#000000;stroke-miterlimit:10;}
	.st4{fill:none;stroke:#000000;stroke-width:2;stroke-miterlimit:10;}
	.st5{fill:#6A98A4;stroke:#000000;stroke-miterlimit:10;}
	.st6{fill:#45717A;}
	.st7{fill:#B4937C;}
	.st8{fill:#E2D4C0;}
	.st9{fill:#764D79;}
	.st10{fill:#AEBFBF;}
	.st11{fill:#00A651;}
	.st12{fill:#3F3B61;}
	.st13{fill:#90A4AE;}
	.st14{fill:#2E5C6B;}
	.st15{fill:#6A98A4;}
	.st16{fill:#BFC0CD;}
	.st17{fill:#F1D2C4;}
	.st18{fill:#D3C4B3;}
	.st19{fill:#F7F1E9;}
	.st20{fill:#E2D4C0;stroke:#000000;stroke-miterlimit:10;}
	.st21{fill:#45717A;stroke:#000000;stroke-miterlimit:10;}
	.st22{fill:#B4937C;stroke:#000000;stroke-miterlimit:10;}
	.st23{fill:#BFC0CD;stroke:#000000;stroke-miterlimit:10;}
	.st24{fill:#764D79;stroke:#000000;stroke-miterlimit:10;}
	.st25{fill:#AEBFBF;stroke:#000000;stroke-miterlimit:10;}
	.st26{fill:#F1F2F2;stroke:#000000;stroke-miterlimit:10;}
	.st27{fill:#4D7293;}
	.st28{fill:#B3C8D3;}
	.st29{fill:#C5A67C;stroke:#000000;stroke-miterlimit:10;}
	.st30{fill:#62708F;}
	.st31{fill:#8FBCDB;}
	.st32{fill:#7B9DBA;}
	.st33{fill:#F1D2C4;stroke:#000000;stroke-miterlimit:10;}
	.st34{fill:#90A4AE;stroke:#000000;stroke-miterlimit:10;}
</style>
<rect x="504.94" y="-233.51" class="st0" width="841.89" height="595.28"/>
<rect x="-351.95" y="-229.63" class="st1" width="841.89" height="574.11"/>
<polygon class="st2" points="799.87,243.9 799.26,163.32 867.1,119.47 939.05,161.85 939.78,242.63 870.19,283.66 "/>
<polygon class="st3" points="805.81,240.59 805.44,166.76 867.48,126.43 933.06,165.09 933.55,239.11 869.92,276.85 "/>
<path class="st4" d="M-311.28-61.96"/>
<path class="st4" d="M-301.52,46.17"/>
<g>
	<g>
		<path class="st5" d="M666,253.67"/>
	</g>
	<g>
		<path class="st5" d="M525.35,294.23"/>
	</g>
	<g>
		<polygon class="st5" points="852.68,240.14 814.5,215.38 823.21,201.96 851.15,220.08 913.28,164.81 923.92,176.76 		"/>
	</g>
	<path class="st5" d="M747.05,236.17"/>
	<path class="st5" d="M818.28,172.8"/>
</g>
<rect x="-514.53" y="-167.65" class="st6" width="30.89" height="36.59"/>
<rect x="-454.37" y="-167.65" class="st7" width="36.59" height="36.59"/>
<rect x="-560.06" y="-167.65" class="st8" width="29.27" height="42.28"/>
<rect x="-551.12" y="-77.41" class="st9" width="29.27" height="40.65"/>
<rect x="-499.08" y="-74.16" class="st10" width="39.84" height="39.84"/>
<rect x="-184.59" y="414.31" class="st11" width="39.43" height="44.72"/>
<rect x="-551.12" y="8.77" class="st12" width="29.27" height="37.4"/>
<rect x="-489.33" y="8.77" class="st13" width="30.08" height="39.84"/>
<rect x="-266.23" y="416.74" class="st11" width="27.64" height="39.84"/>
<rect x="-545.42" y="86" class="st14" width="23.58" height="42.28"/>
<rect x="-489.33" y="88.44" class="st15" width="30.08" height="39.84"/>
<rect x="-586.08" y="361.64" class="st11" width="32.52" height="39.84"/>
<rect x="-540.55" y="177.87" class="st11" width="26.02" height="38.21"/>
<rect x="-474.29" y="177.87" class="st11" width="31.3" height="38.21"/>
<rect x="-512.5" y="362.45" class="st11" width="26.83" height="38.21"/>
<rect x="-540.55" y="256.74" class="st11" width="26.02" height="39.84"/>
<rect x="-479.16" y="256.74" class="st11" width="24.8" height="39.84"/>
<rect x="-449.49" y="362.04" class="st11" width="26.83" height="39.02"/>
<rect x="-71.34" y="415.52" class="st11" width="29.27" height="42.28"/>
<rect x="-593.39" y="-77.41" class="st16" width="23.58" height="40.65"/>
<rect x="-593.39" y="12.83" class="st17" width="33.33" height="33.33"/>
<rect x="-581.6" y="86" class="st18" width="21.54" height="47.15"/>
<rect x="-573.88" y="177.87" class="st11" width="22.76" height="43.09"/>
<rect x="-581.6" y="263.24" class="st11" width="21.54" height="43.09"/>
<rect x="-562.5" y="-233.64" class="st19" width="21.95" height="35.9"/>
<rect x="-508.84" y="-240.82" class="st18" width="19.51" height="43.09"/>
<rect x="-466.77" y="-233.64" class="st14" width="23.78" height="31.84"/>
<rect x="-410.47" y="-233.64" class="st15" width="23.1" height="35.9"/>
<polygon class="st20" points="47.65,73 47.49,51.09 64.69,39.16 82.93,50.69 83.12,72.66 65.47,83.82 "/>
<polygon class="st21" points="49.17,72.1 49.07,52.03 64.79,41.07 81.41,51.57 81.53,71.69 65.41,81.95 "/>
<g>
	<g>
		<path class="st22" d="M13.72,75.68"/>
	</g>
	<g>
		<path class="st22" d="M-21.98,86.73"/>
	</g>
	<g>
		<polygon class="st22" points="61.11,71.99 51.42,65.25 53.63,61.59 60.72,66.53 76.49,51.48 79.19,54.73 		"/>
	</g>
	<path class="st22" d="M34.29,70.91"/>
	<path class="st22" d="M52.38,53.65"/>
</g>
<polygon class="st23" points="731.05,72.82 730.44,-7.77 798.28,-51.61 870.23,-9.24 870.96,71.54 801.37,112.57 "/>
<polygon class="st24" points="736.99,69.5 736.61,-4.33 798.66,-44.65 864.24,-5.99 864.73,68.02 801.1,105.77 "/>
<g>
	<g>
		<path class="st25" d="M597.18,82.58"/>
	</g>
	<g>
		<path class="st25" d="M456.53,123.15"/>
	</g>
	<g>
		<polygon class="st25" points="783.86,69.05 745.68,44.29 754.39,30.87 782.33,48.99 844.46,-6.28 855.09,5.68 		"/>
	</g>
	<path class="st25" d="M678.22,65.08"/>
	<path class="st25" d="M749.46,1.71"/>
</g>
<polygon class="st26" points="1439.7,-43.06 1439.1,-122.42 1505.82,-165.6 1576.56,-123.87 1577.29,-44.32 1508.86,-3.91 "/>
<polygon class="st0" points="1445.54,-46.33 1445.18,-119.03 1506.18,-158.75 1570.68,-120.67 1571.16,-47.79 1508.59,-10.61 "/>
<g>
	<g>
		<path class="st19" d="M1308.06-33.44"/>
	</g>
	<g>
		<path class="st19" d="M1169.75,6.5"/>
	</g>
	<g>
		<polygon class="st19" points="1491.63,-46.77 1454.09,-71.15 1462.65,-84.37 1490.13,-66.53 1551.23,-120.96 1561.68,-109.18 		
			"/>
	</g>
	<path class="st19" d="M1387.76-50.68"/>
	<path class="st19" d="M1457.81-113.09"/>
</g>
<rect x="-586.08" y="444.94" class="st11" width="26.02" height="55.02"/>
<rect x="-521.85" y="444.94" class="st11" width="32.52" height="55.02"/>
<rect x="-424.29" y="444.94" class="st11" width="22.29" height="55.02"/>
<rect x="-576.73" y="538.68" class="st11" width="16.67" height="52.99"/>
<rect x="-514.53" y="538.68" class="st11" width="28.86" height="63.18"/>
<rect x="-424.29" y="550.91" class="st11" width="22.29" height="50.95"/>
<rect x="468.6" y="-224.23" class="st1" width="841.89" height="574.11"/>
<polygon class="st27" points="611.07,-53.22 610.45,-133.8 678.3,-177.65 750.25,-135.27 750.98,-54.49 681.39,-13.47 "/>
<polygon class="st28" points="617.01,-56.53 616.63,-130.36 678.67,-170.69 744.26,-132.03 744.74,-58.02 681.12,-20.27 "/>
<g>
	<g>
		<path class="st29" d="M1014.11-71.98"/>
	</g>
	<g>
		<path class="st29" d="M873.46-31.42"/>
	</g>
	<g>
		<polygon class="st29" points="1200.79,-85.51 1162.62,-110.27 1171.32,-123.7 1199.27,-105.57 1261.39,-160.84 1272.03,-148.89 		
			"/>
	</g>
	<path class="st29" d="M1095.16-89.48"/>
	<path class="st29" d="M1166.4-152.85"/>
</g>
<polygon class="st30" points="584.91,210.62 584.29,130.04 652.14,86.19 724.09,128.57 724.82,209.35 655.23,250.37 "/>
<polygon class="st31" points="590.85,207.31 590.47,133.48 652.51,93.15 718.1,131.81 718.59,205.82 654.96,243.57 "/>
<g>
	<g>
		<path class="st22" d="M451.04,220.39"/>
	</g>
	<g>
		<path class="st22" d="M310.38,260.95"/>
	</g>
	<g>
		<polygon class="st22" points="637.72,206.85 599.54,182.1 608.24,168.67 636.19,186.79 698.32,131.53 708.95,143.48 		"/>
	</g>
	<path class="st22" d="M532.08,202.89"/>
	<path class="st22" d="M603.32,139.51"/>
</g>
<polygon class="st23" points="1013.26,105.55 1012.64,24.97 1080.49,-18.87 1152.44,23.5 1153.17,104.28 1083.58,145.31 "/>
<polygon class="st32" points="1019.2,102.24 1018.82,28.41 1080.86,-11.91 1146.45,26.75 1146.93,100.76 1083.31,138.51 "/>
<g>
	<g>
		<path class="st25" d="M879.38,115.32"/>
	</g>
	<g>
		<path class="st25" d="M738.73,155.88"/>
	</g>
	<g>
		<polygon class="st25" points="1066.07,101.79 1027.89,77.03 1036.59,63.61 1064.54,81.73 1126.67,26.46 1137.3,38.42 		"/>
	</g>
	<path class="st25" d="M960.43,97.82"/>
	<path class="st25" d="M1031.67,34.45"/>
</g>
<polygon class="st33" points="1110.86,-53.22 1110.25,-133.8 1178.1,-177.65 1250.04,-135.27 1250.77,-54.49 1181.18,-13.47 "/>
<polygon class="st12" points="1116.8,-56.53 1116.43,-130.36 1178.47,-170.69 1244.05,-132.03 1244.54,-58.02 1180.91,-20.27 "/>
<g>
	<g>
		<path class="st34" d="M976.99-43.45"/>
	</g>
	<g>
		<path class="st34" d="M836.34-2.89"/>
	</g>
	<g>
		<polygon class="st34" points="1163.67,-56.99 1125.49,-81.74 1134.2,-95.17 1162.14,-77.05 1224.27,-132.32 1234.91,-120.36 		"/>
	</g>
	<path class="st34" d="M1058.04-60.95"/>
	<path class="st34" d="M1129.27-124.33"/>
</g>
</svg>
