<svg width="65" height="208" viewBox="0 0 65 208" fill="none" xmlns="http://www.w3.org/2000/svg">
<path d="M16.8634 140.618C17.4702 142.034 18.5489 145.378 20.275 148.979C20.6795 149.882 21.111 150.826 21.5425 151.77C21.9606 152.714 22.4999 153.618 22.9719 154.535C23.9698 156.342 24.8058 158.162 25.7767 159.618C29.8626 166.63 34.744 173.144 40.0705 179.239C45.4104 185.334 51.2357 190.984 57.4926 196.189C59.5018 197.739 63.0483 200.194 61.3492 202.729C59.5962 205.358 56.0093 205.183 52.1662 202.351C43.0775 195.245 35.4182 186.642 28.0152 178.038C22.6213 171.714 17.9421 164.729 14.2069 157.286C10.4447 149.842 7.45106 142.034 5.05079 134.052C2.90673 126.864 1.6122 119.447 0.803123 111.977C0.10192 104.493 0.169344 96.9551 0.681761 89.4577C1.09979 85.9517 1.30206 82.4186 1.94932 78.9531C2.24598 77.2135 2.43477 75.4472 2.82582 73.7212L3.94505 68.543C5.64412 61.6927 7.73424 54.8828 10.7278 48.4506C13.182 42.841 16.3644 37.5957 19.7086 32.512L22.3921 28.8172C23.309 27.6036 24.1451 26.3361 25.1429 25.1764C27.0982 22.8436 28.9186 20.4161 31.0088 18.2046C31.9662 17.1393 32.8966 15.8718 33.854 14.5638C34.8654 13.3097 35.9307 12.0423 37.0499 10.923C38.8164 9.00821 42.1201 6.1762 44.1833 4.62547C45.0598 3.93775 46.0846 3.37171 46.8532 2.5896C50.4536 -0.956867 52.1257 -0.875959 52.9348 2.92672C53.1236 3.76276 54.0406 4.30197 53.4742 5.43468C53.4472 5.48862 53.4068 5.58319 53.3933 5.62365C52.6921 7.53847 51.5324 8.83293 50.1839 9.93867C48.9029 11.1253 47.4466 12.1502 46.152 13.3638C33.6383 25.4461 23.7136 40.1981 17.2544 56.3528C13.3439 66.264 10.5121 76.6875 9.67603 87.273C9.36588 90.1722 9.703 93.0848 9.27149 95.9975V95.9439C9.19058 97.4676 9.31194 99.0048 9.37937 100.529C9.46027 102.052 9.48724 103.576 9.54118 105.1C10.0266 116.656 12.7236 128.509 16.1891 139.068C16.27 139.513 16.6341 140.012 16.8634 140.618Z" fill="black"/>
<path d="M53.2974 193.102C53.23 192.535 53.0682 190.486 52.8524 189.191C52.3265 186.211 51.895 183.204 52.4209 180.075C52.5018 179.59 52.4074 178.794 55.428 178.363C58.5699 177.918 60.4847 178.188 60.4847 179.024C60.4847 181.033 60.0532 183.123 60.8893 185.011C62.1029 187.762 62.0894 190.701 62.6827 193.547C62.8041 194.126 62.8985 194.706 62.9929 195.286L63.4514 198.388C63.7615 200.505 64.0582 202.608 64.4357 204.766L63.0873 204.982C60.9432 205.332 58.8396 205.804 56.5337 206.276L55.6707 206.452C55.401 206.505 55.01 206.573 54.9291 206.613L54.0391 206.843C53.4457 206.978 52.8389 207.099 52.2321 207.166C50.1285 207.396 47.944 206.87 45.8134 206.856C45.3145 206.856 44.7886 207.49 44.2357 207.503C43.7772 207.517 43.0356 207.584 42.5636 207.382C42.3614 207.288 42.1456 207.166 41.9703 207.301C41.1747 207.921 40.8106 206.856 40.6758 203.364C40.6488 202.595 40.4465 201.611 40.5949 201.058C40.5949 201.031 40.6083 200.99 40.6218 200.963C40.9994 198.792 41.7545 199.682 42.4018 199.547C45.5707 198.913 48.7666 198.496 51.949 197.997L53.4188 197.794L54.0121 197.714L54.1604 197.687C54.3357 197.633 54.511 197.552 54.4706 197.349C54.4571 197.255 54.1739 196.972 54.2144 196.999C54.2144 196.999 54.2413 197.012 54.3088 197.039C54.1874 196.904 53.9582 196.77 53.9582 196.77C53.9582 196.77 53.9447 196.743 53.9312 196.743L53.9042 196.729H53.8907C53.8907 196.743 53.8907 196.729 53.8773 196.635C53.6885 195.556 53.5401 194.477 53.5267 193.439C53.4727 193.317 53.3109 193.223 53.2974 193.102Z" fill="black"/>
</svg>
