<svg width="139" height="298" viewBox="0 0 139 298" fill="none" xmlns="http://www.w3.org/2000/svg">
<path d="M39.8119 186.94C39.5826 189.111 38.787 193.992 38.369 199.615C38.1128 202.42 37.8296 205.4 37.7217 208.299C37.6004 211.199 37.3711 214.017 37.3981 216.485C36.9396 239.382 39.4747 262.184 44.0056 284.596C44.8012 288.075 46.3654 293.941 43.4123 294.696C40.3378 295.478 37.4386 291.945 35.9013 285.674C32.4627 270.45 30.8715 254.889 29.3478 239.516C28.2555 228.257 28.0667 216.903 28.7949 205.616C29.4961 194.329 30.939 183.097 32.8538 171.958C34.5798 161.953 37.0205 152.068 39.8119 142.305C42.6841 132.556 46.0957 122.995 49.8175 113.529C56.9913 95.8643 65.2979 78.5231 76.0586 62.6516C80.6164 55.761 85.7946 49.2883 91.094 42.964C93.8584 39.8895 96.5418 36.7611 99.3871 33.781C102.273 30.8278 105.037 27.7803 108.044 24.9485C109.433 23.5866 110.849 21.9819 112.292 20.3368C113.789 18.7456 115.339 17.1274 116.917 15.6845C119.452 13.2438 123.983 9.48161 126.788 7.39148C127.988 6.47453 129.323 5.65196 130.402 4.64061C135.391 0.0153744 137.454 -0.20038 137.805 3.9529C137.886 4.86985 138.938 5.31485 138.007 6.71725C137.967 6.77119 137.899 6.89255 137.859 6.94649C136.618 9.27934 134.892 11.0189 132.977 12.5561C131.13 14.1743 129.107 15.6171 127.233 17.2623C109.069 33.5787 93.1707 52.4168 80.104 73.0618C72.1346 85.7508 65.0012 99.0197 59.486 112.936C57.9083 116.725 56.8969 120.717 55.1439 124.479L55.1709 124.411C54.4023 126.434 53.7955 128.511 53.1347 130.587C52.4874 132.65 51.7997 134.7 51.1255 136.763C46.0418 152.325 42.4683 169.086 39.9872 184.58C39.8793 185.187 39.9332 186.036 39.8119 186.94Z" fill="black"/>
<path d="M50.3028 238.168C50.8557 234.649 52.9188 222.202 54.119 214.192C56.8833 195.678 59.7286 177.163 63.5313 158.851C64.1246 155.993 64.8932 151.084 67.9003 151.65C71.0287 152.23 72.3502 155.804 71.4603 160.807C69.3027 172.943 66.6867 185.065 65.3787 197.269C63.4504 215.123 60.295 232.747 57.7329 250.48C56.5867 258.435 55.3596 266.391 54.1325 274.347C53.5122 278.217 53.0402 282.533 51.476 286.915C50.6804 289.1 49.696 291.392 47.7138 293.603C46.7024 294.669 45.4618 295.748 43.8437 296.408C42.266 297.056 40.5264 297.393 38.7465 297.15C37.8969 297.109 37.1283 296.826 36.3327 296.584C35.618 296.273 34.8764 295.936 34.2831 295.532C33.6762 295.127 33.0829 294.696 32.611 294.251C32.0851 293.806 31.6535 293.334 31.249 292.862C29.6039 290.974 28.4981 289.032 27.5407 287.104C25.6394 283.261 24.5471 279.202 23.5088 275.709C21.3513 268.468 19.2207 261.227 17.2519 253.932C13.8673 241.337 11.2243 228.553 8.08236 215.891C7.3407 212.911 5.83042 209.486 4.99437 206.236C4.30665 203.539 3.12 199.049 2.64804 196.325C2.44577 195.152 2.27047 193.911 1.85245 192.819C-0.0488918 187.789 0.652311 186.131 4.48195 186.953C5.33149 187.129 6.16754 186.427 7.01707 187.547C7.05752 187.587 7.12495 187.681 7.1654 187.722C10.2264 190.958 10.3343 195.098 11.4535 199.009C16.9013 218.17 22.1334 237.386 27.4463 256.588L32.2873 274.28C33.1099 277.314 33.8381 279.957 34.9438 282.465C35.4832 283.706 36.1035 284.879 36.7777 285.877C37.4385 286.875 38.1936 287.697 38.8274 288.115C38.9892 288.196 39.1645 288.358 39.2859 288.344C39.4207 288.398 39.5421 288.439 39.623 288.412C39.8118 288.439 39.9062 288.331 40.0949 288.29C40.4051 288.156 40.6613 287.967 41.376 287.36L41.349 287.374C41.9154 286.632 42.4548 285.378 42.8728 284.029C43.3043 282.667 43.6414 281.144 43.965 279.593C44.2752 278.123 44.5044 276.572 44.7606 274.86C45.0168 273.188 45.2596 271.516 45.5158 269.843C46.0147 266.486 46.5136 263.128 47.0126 259.77C48.0104 253.069 49.0353 246.448 50.1545 240.123C50.2219 239.597 50.1815 238.896 50.3028 238.168Z" fill="black"/>
</svg>
