<svg width="74" height="205" viewBox="0 0 74 205" fill="none" xmlns="http://www.w3.org/2000/svg">
<path d="M70.5204 132.859C70.0754 134.477 69.3068 138.226 67.8774 142.339C67.5403 143.377 67.2032 144.442 66.8661 145.521C66.529 146.6 66.0703 147.638 65.6793 148.69C64.8432 150.767 64.1825 152.843 63.36 154.569C56.5637 170.832 45.9782 185.651 32.3317 196.749C30.1337 198.408 26.5605 201.401 24.7535 198.934C22.8792 196.358 23.9444 193.054 27.3695 190.276C35.4738 183.264 42.9984 175.12 48.1091 165.586C51.7904 158.628 55.1749 151.535 57.737 144.118C60.3125 136.715 62.2545 129.097 63.2793 121.343C64.1963 114.371 64.3849 107.346 64.1017 100.347C63.7106 93.3487 62.524 86.4178 60.7845 79.635C59.7866 76.4931 58.937 73.3105 57.6425 70.2899C57.0087 68.7662 56.4964 67.2156 55.7817 65.7323L53.6781 61.2823C50.6845 55.4434 47.4348 49.7393 43.6591 44.3859C40.5306 39.6798 37.038 35.2163 33.4376 30.8203L30.579 27.6651C29.6081 26.6268 28.7044 25.521 27.6526 24.5636C25.5895 22.6083 23.6073 20.5451 21.3554 18.7921C20.3171 17.9426 19.0763 17.1202 17.8222 16.2976C16.5142 15.529 15.166 14.7873 13.9793 13.9378C12.0645 12.441 8.54504 10.472 6.61674 8.98871C5.79417 8.32796 4.87722 7.76169 3.9198 7.38412C-0.462709 5.75247 -1.12358 4.17486 1.77563 1.74762C2.42289 1.22172 2.4768 0.115765 3.77133 0.183188C3.82527 0.183188 3.93303 0.183188 3.98696 0.183188C6.07709 0.0483419 7.88422 0.641943 9.5698 1.47799C11.2014 2.40843 12.7118 3.58128 14.3569 4.52521C30.3497 14.0858 43.8611 27.5978 53.9207 43.2669C60.0562 52.9354 64.6951 63.4802 68.2821 74.3758C68.7405 75.8726 69.4146 77.3156 69.8192 78.8528C70.2507 80.3766 70.6418 81.9138 70.8575 83.505L70.844 83.451C71.3025 85.0556 71.5992 86.7009 71.9093 88.3461C72.206 89.9912 72.5568 91.6362 72.7456 93.2948C74.1075 105.889 73.5814 119.266 70.844 131.079C70.7226 131.524 70.6822 132.171 70.5204 132.859Z" fill="black"/>
<path d="M36.497 193.797C37.5623 193.594 41.3381 192.853 43.6709 192.043C49.0918 190.236 54.2562 187.944 59.677 185.841C60.5266 185.504 61.8212 184.708 63.4528 187.283C65.1519 189.953 65.1925 192.138 63.6283 192.934C59.8256 194.835 55.7802 196.048 52.1258 198.085C46.7455 201.132 40.6369 202.359 34.6363 203.478C33.2878 203.748 31.9123 203.924 30.5504 204.085L28.4872 204.288C27.732 204.355 26.95 204.382 26.1409 204.369C24.5227 204.342 22.81 204.193 20.8682 203.505C19.9512 203.182 18.7781 202.588 17.8746 201.833C16.9576 201.078 16.1756 200.148 15.6093 199.096C15.0699 198.112 14.7058 197.019 14.5574 195.887C14.3956 194.714 14.4495 193.702 14.5439 192.785C14.7732 190.951 15.2588 189.454 15.7443 188.106L16.4587 186.272L17.1464 184.559C17.6183 183.427 18.1039 182.294 18.6433 181.188C20.4907 177.372 23.0124 173.893 25.089 170.185C25.5745 169.308 25.588 167.987 26.1004 167.016C26.5319 166.22 27.1927 164.858 27.813 164.171C28.0827 163.874 28.3928 163.564 28.4467 163.186C28.7299 161.393 29.9165 161.447 32.8157 163.47C33.4495 163.915 34.4203 164.211 34.7169 164.818C34.7304 164.845 34.7574 164.899 34.7709 164.912C36.1329 166.976 34.6901 167.731 34.1642 168.944C31.6021 174.891 28.8378 180.757 26.1544 186.65L24.9001 189.347C24.482 190.25 24.0237 191.167 23.7136 191.922C23.3899 192.691 23.1742 193.419 23.0933 193.999C23.0664 194.282 23.0529 194.538 23.0933 194.7C23.1338 194.821 23.174 194.862 23.2415 194.929C23.3224 194.983 23.4707 194.997 23.5786 194.97C23.6865 194.956 23.7135 194.929 23.6596 195.064C23.754 195.051 23.727 194.97 23.9697 194.997C24.1585 195.01 24.4418 195.024 24.7384 195.091C25.3317 195.199 26.1137 195.226 26.9633 195.172C27.7454 195.132 28.9188 194.956 29.9031 194.862C31.9393 194.579 33.9619 194.295 35.8903 194.039C36.106 194.012 36.2812 193.837 36.497 193.797Z" fill="black"/>
</svg>
