<svg width="284" height="100" viewBox="0 0 284 100" fill="none" xmlns="http://www.w3.org/2000/svg">
<path d="M170.358 33.2047C174.107 32.7328 187.43 31.3843 195.952 30.5887C215.68 28.6739 235.435 27.4468 255.15 27.258C258.224 27.231 263.456 26.9344 263.524 29.9954C263.605 33.1778 260.22 35.2274 254.853 35.4162C241.881 35.8882 228.828 35.9691 216.017 37.4928C197.287 39.7043 178.557 41.0933 160.002 43.8442C151.668 45.0847 143.375 46.4467 135.096 47.957C126.83 49.4942 118.618 51.2607 110.473 53.2969C95.1947 57.2209 80.3211 62.3856 65.6902 67.9817C53.0551 72.7553 40.393 77.6232 28.3782 83.9071C26.9623 84.6487 25.4925 85.6061 23.9822 86.5905C22.4989 87.6019 21.0021 88.6672 19.4918 89.5302C16.9567 90.9191 12.9383 93.5486 10.3762 94.8566C9.25694 95.4095 8.13771 96.0433 7.20727 96.8119C2.94612 100.385 1.08524 100.331 0.599788 96.4343C0.491911 95.5713 -0.478985 95.0319 0.343579 93.8183C0.370549 93.7644 0.437972 93.67 0.478426 93.6161C1.58417 91.5664 3.18884 90.11 4.94185 88.8829C6.73531 87.6963 8.6771 86.7254 10.484 85.5387C28.3782 73.9958 47.7287 64.8532 67.632 57.4906C79.8626 53.0002 92.3899 49.3728 104.877 45.7994C108.288 44.7881 111.659 43.561 115.233 43.0081L115.179 43.0216C118.82 42.0642 122.474 41.1337 126.169 40.3516C140.139 37.5873 154.783 35.0387 168.349 33.5958C168.875 33.5149 169.576 33.2991 170.358 33.2047Z" fill="black"/>
<path d="M282.968 33.9864C282.725 35.3484 281.97 37.4654 280.608 39.4072C279.273 41.3895 277.453 43.156 275.552 44.7337C273.596 46.3249 271.789 47.5924 269.996 48.9678C268.203 50.3298 266.463 51.6378 264.939 52.7975C250.861 63.5717 236.716 74.2651 222.031 84.1628C219.739 85.7136 215.976 88.5318 214.21 86.0507C212.376 83.4616 213.765 80.0904 217.676 77.2721C227.155 70.4624 236.945 63.9628 245.872 56.5193C252.398 51.0715 259.114 45.8799 265.87 40.7422C267.582 39.4342 269.241 38.2341 270.589 37.0205C271.965 35.8068 273.057 34.5123 273.61 33.3661C273.893 32.7862 274.041 32.2603 274.082 31.7614C274.109 31.2625 274.028 30.7231 273.893 30.2511C273.556 29.3477 272.787 28.3633 271.439 27.5003C270.279 26.7182 268.823 26.0574 267.272 25.5046C265.694 24.9517 264.09 24.5471 262.283 24.183C258.574 23.4279 254.866 22.6188 251.144 21.9176C243.714 20.4343 236.257 19.1263 228.773 17.9397C214.709 15.7686 200.523 14.5415 186.405 12.9638C174.214 11.6153 162.065 9.79491 149.821 8.78356C146.935 8.54084 143.429 8.9454 140.274 8.71616C137.658 8.55434 133.289 8.36554 130.713 8.00145C129.594 7.85312 128.434 7.67783 127.342 7.75874C122.285 8.13631 120.977 6.99012 122.743 3.55153C123.135 2.79639 122.73 1.78503 123.971 1.2861C124.025 1.25913 124.119 1.21868 124.173 1.20519C127.962 -0.804023 131.778 0.274755 135.621 0.409601C154.567 0.922018 173.486 2.39184 192.338 4.42802C203.908 5.69558 215.424 7.42163 226.953 8.86449C230.108 9.22857 233.318 9.36341 236.46 10.159L236.406 10.1455C239.75 10.604 243.094 11.0355 246.411 11.6423C249.54 12.2491 252.709 12.8559 255.891 13.4627C259.087 14.11 262.283 14.7573 265.465 15.4045C268.944 16.2136 272.45 17.2789 275.916 19.423C277.628 20.5152 279.381 21.9446 280.784 23.9403C282.2 25.9226 283.076 28.5386 283.103 30.9793C283.103 31.3704 283.13 31.8289 283.144 32.3413C283.103 32.8672 283.076 33.4335 282.968 33.9864Z" fill="black"/>
</svg>
