<svg width="269" height="367" viewBox="0 0 269 367" fill="none" xmlns="http://www.w3.org/2000/svg">
<path d="M187.662 8.29555C187.376 7.5626 186.304 6.77621 185.606 6.02539C182.478 2.57518 181.137 1.89577 180.672 3.46892C180.565 3.80858 180.136 3.89792 179.868 4.09456C177.169 3.03984 179.01 6.15045 176.99 5.7214C177.251 6.18458 177.324 6.73044 177.195 7.24612C177.065 7.7618 176.742 8.20799 176.293 8.49238C173.496 10.8775 170.885 13.4711 168.481 16.2508C167.247 17.9437 166.159 19.7378 165.227 21.6138C164.351 19.8262 163.654 18.0385 162.939 16.2508C161.151 11.7816 159.721 7.16937 158.309 2.5393C158.023 1.59183 159.256 0.233341 156.003 0.00094407C154.98 -0.0113536 153.96 0.0965268 152.963 0.322603C148.333 0.805274 146.975 1.44898 147.958 2.70035C148.173 2.9685 147.958 3.32588 147.958 3.66554C145.491 5.14931 149.066 5.45321 147.529 6.79396C149.209 7.16937 149.209 8.04539 149.317 8.86772C149.571 12.3489 150.133 15.8007 150.997 19.1826C152.573 22.8948 154.432 26.4807 156.557 29.9086C157.236 31.1958 157.897 32.4827 158.559 33.7699C157.54 35.5575 156.557 37.3452 155.681 39.1329C153.536 43.6378 150.854 47.9105 149.835 52.8981C149.174 56.3125 146.975 59.1012 145.437 62.1939C144.794 63.481 146.778 65.1795 150.8 66.6096C154.823 68.0397 155.073 66.7704 155.52 66.109C158.202 61.9884 160.454 57.6034 162.242 53.0231C163.118 51.1103 164.136 49.2511 165.173 47.4277C165.173 47.2132 165.03 46.945 165.173 46.7842L165.727 45.8011C167.182 48.2726 168.988 50.5189 171.09 52.4691C173.593 54.5964 174.827 57.7426 176.686 60.442C177.455 61.5682 179.868 60.585 182.996 57.7784C186.125 54.9717 185.249 54.203 184.945 53.5058C182.869 49.4872 180.409 45.6795 177.598 42.1363C176.506 40.5386 175.498 38.8858 174.576 37.1844C174.398 37.1844 174.112 37.0771 174.04 36.952C173.397 35.8615 172.807 34.7532 172.252 33.6448C172.327 33.3288 172.422 33.0182 172.539 32.7152C173.919 29.8126 175.59 27.0574 177.526 24.492C180.44 20.1479 183.622 16.0006 186.786 11.8174C187.501 10.9772 189.378 11.1022 187.662 8.29555Z" fill="black"/>
<path d="M258.454 83.0706C255.275 79.1728 251.738 75.5818 247.888 72.3445C246.315 70.8608 244.849 69.2519 243.419 67.6251C243.205 67.6251 242.919 67.6251 242.794 67.4642C240.362 64.8364 238.11 62.1011 235.822 59.2945C235.189 58.6027 234.502 57.9631 233.766 57.3817C235.893 55.1472 238.092 52.9661 240.327 50.8209C241.238 49.9628 243.223 50.2668 242.114 47.1205C241.989 46.334 241.042 45.3327 240.505 44.5104C238.056 40.5418 236.787 39.6837 235.857 41.3641C235.661 41.7216 235.178 41.7754 234.821 41.972C232.175 40.6492 233.355 44.1351 231.245 43.5452C231.38 44.1308 231.309 44.7447 231.046 45.2846C230.782 45.8246 230.341 46.258 229.797 46.5126C228.689 47.3706 227.545 48.3003 226.401 49.069C226.097 48.6221 225.793 48.1931 225.471 47.7641C222.343 43.4022 219.5 38.8256 216.64 34.285C216.068 33.3375 216.837 31.5857 213.601 32.1577C212.604 32.4027 211.643 32.7752 210.741 33.2661C206.397 34.9286 205.378 35.9475 206.611 37.0023C206.915 37.2168 206.844 37.6638 206.933 38.0035C205.002 40.1665 208.578 39.5943 207.487 41.3641C209.275 41.3641 209.507 42.258 209.865 43.0625C211.176 46.6231 212.76 50.0776 214.602 53.3953C215.548 54.7872 216.587 56.1131 217.713 57.3639C215.317 60.5638 213.386 64.1034 211.223 67.4285C208.271 71.8587 205.545 76.4349 203.054 81.1397C200.479 86.5028 197.494 91.6693 196.404 97.6043C195.706 101.627 193.49 105.166 192.077 109.028C191.487 110.619 193.579 112.281 197.655 113.318C201.731 114.355 201.999 112.853 202.428 112.049C204.91 106.954 207.124 101.733 209.06 96.4065C210.023 94.1704 211.104 91.9863 212.296 89.8636C212.296 89.6312 212.171 89.3454 212.296 89.1666C214.084 85.5913 216.336 82.1588 218.481 78.7622C219.026 77.8317 219.504 76.864 219.912 75.8662C220.77 75.2048 220.823 74.0785 221.306 73.131C222.598 70.7458 224.132 68.4994 225.882 66.4272C227.974 68.93 230.066 71.4329 232.389 73.739C235.965 77.3143 239.325 81.4079 243.848 84.0716C246.959 85.8592 248.979 88.9163 251.535 91.4012C252.59 92.438 254.843 91.0973 257.435 87.8258C260.027 84.5544 258.954 83.7141 258.454 83.0706Z" fill="black"/>
<path d="M144.008 197.769C139.432 194.694 134.748 192.406 130.207 189.51C129.224 188.902 128.33 188.187 127.401 187.49C126.471 186.793 125.613 186.059 124.737 185.291C124.505 185.291 124.218 185.291 124.058 185.184C122.022 183.481 120.093 181.654 118.283 179.713C118.873 178.694 119.481 177.693 120.071 176.692C123.182 171.222 126.382 165.823 129.331 160.263C129.939 159.137 131.959 158.69 129.868 156.098C129.492 155.401 128.277 154.829 127.454 154.203C123.879 151.343 122.306 150.967 122.091 152.773C122.091 153.166 121.609 153.363 121.34 153.649C118.462 153.184 120.733 156.062 118.57 156.08C118.882 156.567 119.011 157.15 118.932 157.724C118.853 158.297 118.573 158.824 118.14 159.209C115.691 162.552 112.777 165.537 110.543 169.041C110.167 169.649 109.846 170.292 109.506 170.828C109.003 170.263 108.538 169.666 108.112 169.041C107.093 167.593 106.145 166.091 105.269 164.554C102.352 159.576 99.9556 154.31 98.1187 148.84C97.7611 147.696 98.9052 146.123 95.5801 145.801C94.551 145.761 93.5215 145.869 92.5232 146.123C87.8753 146.588 86.5523 147.338 87.6785 148.93C87.9109 149.269 87.6786 149.716 87.7859 150.127C85.4619 151.915 89.0909 152.398 87.7859 154.024C89.5735 154.489 89.6807 155.58 89.931 156.581L91.5399 162.945C92.1495 165.066 92.9575 167.125 93.9533 169.094C96.3309 173.617 99.9778 177.282 103.196 181.108L104.089 182.109C101.712 186.506 98.9589 190.708 96.5455 195.087C93.8282 200.057 90.4316 204.598 88.4294 209.996C87.0708 213.697 84.2283 216.539 81.9044 219.685C80.939 220.973 82.5121 223.136 86.1054 225.335C89.6986 227.533 90.3779 226.103 91.0214 225.424C94.9583 220.978 98.3547 216.081 101.14 210.837C102.409 208.62 103.839 206.51 105.216 204.347C105.216 204.115 105.216 203.811 105.216 203.632C107.45 200.057 109.738 196.482 111.937 192.906C112.277 192.337 112.564 191.739 112.795 191.119C113.332 191.583 113.85 192.084 114.404 192.531C118.999 196.213 123.593 200.164 129.313 202.131C131.218 202.84 133.05 203.732 134.784 204.794C136.517 205.895 138.307 206.904 140.147 207.816C141.702 208.566 143.525 206.618 144.866 202.631C146.207 198.645 144.723 198.251 144.008 197.769Z" fill="black"/>
<path d="M56.679 283.364C52.9756 280.539 49.1204 277.919 45.1308 275.516C43.4886 274.375 41.9239 273.127 40.4471 271.779C40.2325 271.779 39.9642 271.779 39.8391 271.779L38.856 270.903C42.6459 266.148 46.7396 261.643 50.9228 257.21C51.8345 256.262 53.8903 256.405 52.7105 253.295C52.5496 252.49 51.5306 251.614 50.9228 250.774C48.2592 246.948 46.9185 246.198 46.0604 247.95C45.8637 248.325 45.3809 248.414 45.0234 248.647C42.2882 247.485 43.629 250.917 41.448 250.435C41.5985 251.03 41.5467 251.659 41.3007 252.222C41.0548 252.785 40.6287 253.251 40.0894 253.545C38.3017 254.993 36.6572 256.405 34.8874 257.8C33.1849 259.211 31.5894 260.747 30.1143 262.394C29.6852 262.054 29.131 261.822 28.7198 261.447C26.4829 259.338 24.5461 256.932 22.9636 254.296C20.1773 250.132 17.7322 245.75 15.6521 241.192C15.2409 240.245 16.2599 238.707 12.9885 238.868C11.9682 238.965 10.9647 239.194 10.003 239.548C5.44441 240.567 4.19311 241.335 5.39085 242.622C5.64113 242.891 5.51593 243.32 5.55168 243.659C3.37072 245.572 6.96387 245.447 5.69462 247.056C7.48229 247.235 7.60739 248.164 7.89342 249.004C8.46547 250.792 9.03753 252.58 9.68109 254.367C10.279 256.169 11.0577 257.906 12.0052 259.552C14.2576 263.342 17.6364 266.291 20.5324 269.491L23.3389 272.476C22.749 273.46 22.1412 274.443 21.5513 275.39C18.6195 280.038 15.4911 284.543 12.9348 289.406C10.1281 294.769 6.85671 300.025 5.35507 306.031C4.37185 310.125 1.88692 313.629 0.152881 317.472C-0.580064 319.063 1.35066 320.922 5.33717 322.281C9.32368 323.64 9.71693 322.12 10.2175 321.316C13.1983 316.122 15.855 310.749 18.1725 305.227C19.2809 302.903 20.5144 300.65 21.7479 298.451C21.7479 298.219 21.7479 297.915 21.7479 297.718C23.8216 294.018 26.1635 290.461 28.4874 286.903C29.066 285.928 29.5853 284.919 30.0427 283.882C30.9365 283.185 31.0259 281.969 31.5443 281.022C31.6515 280.807 31.7947 280.61 31.9019 280.396C35.1747 283.403 38.9425 285.822 43.0391 287.547C46.382 288.709 48.9564 291.229 52.0669 292.91C53.3362 293.66 55.1596 291.801 56.7864 287.904C58.4132 284.007 57.1975 283.846 56.679 283.364Z" fill="black"/>
<path d="M176.31 305.154C173.07 301.302 169.479 297.759 165.584 294.571C163.975 293.123 162.474 291.55 161.008 289.959C160.793 289.959 160.507 289.959 160.382 289.816C157.879 287.242 155.573 284.453 153.231 281.789C152.936 281.458 152.613 281.153 152.266 280.878C154.626 277.481 156.986 274.067 159.238 270.598C159.953 269.49 162.027 269.186 160.168 266.415C159.846 265.664 158.684 265.003 157.933 264.306C154.519 261.142 153.071 260.641 152.57 262.518C152.481 262.911 152.016 263.072 151.73 263.34C148.87 262.643 150.872 265.754 148.709 265.611C148.97 266.143 149.038 266.75 148.901 267.328C148.764 267.905 148.431 268.417 147.958 268.775C146.778 270.152 145.473 271.439 144.186 272.761L142.577 270.598C139.323 266.326 136.356 261.839 133.37 257.352C132.763 256.422 133.478 254.652 130.26 255.314C129.262 255.573 128.305 255.97 127.417 256.494C123.127 258.281 122.054 259.336 123.395 260.355C123.699 260.569 123.646 260.999 123.753 261.338C121.965 263.555 125.54 262.876 124.414 264.681C124.95 264.599 125.496 264.72 125.947 265.021C126.397 265.323 126.717 265.782 126.845 266.308C128.249 269.834 129.923 273.247 131.851 276.516C133.323 278.548 134.968 280.45 136.767 282.2C134.979 285.043 133.478 288.01 131.654 290.781C128.794 295.143 125.558 299.237 122.716 303.581C119.498 308.408 115.565 312.77 113.098 318.115C111.311 321.69 108.236 324.443 105.59 327.446C104.5 328.698 105.858 331.022 109.255 333.489C112.651 335.956 113.474 334.597 114.189 333.953C118.579 329.732 122.466 325.017 125.773 319.902C127.275 317.739 128.919 315.701 130.51 313.61C130.51 313.359 130.51 313.055 130.617 312.877C133.21 309.409 135.855 305.976 138.43 302.473C139.06 301.506 139.621 300.497 140.11 299.451C141.04 298.772 141.183 297.539 141.701 296.573C142.735 294.689 143.881 292.868 145.133 291.121C146.742 292.909 148.387 294.696 150.139 296.484C153.875 300.059 157.289 303.992 161.83 306.566C164.958 308.354 167.05 311.304 169.642 313.717C170.715 314.736 172.932 313.342 175.47 309.981C178.009 306.62 176.811 305.798 176.31 305.154Z" fill="black"/>
<path d="M267.733 226.353C265.249 221.79 262.164 217.581 258.562 213.839C257.06 212.176 255.72 210.389 254.325 208.655C254.111 208.655 253.824 208.655 253.699 208.458C251.357 205.598 249.069 202.702 246.692 199.877C246.009 199.161 245.267 198.504 244.475 197.911C244.135 196.981 243.098 196.659 242.383 196.123C241.108 195.018 239.913 193.823 238.808 192.548C241.633 188.15 244.689 183.913 247.746 179.605C248.354 178.729 250.267 178.765 248.426 176.03C248.104 175.314 246.978 174.582 246.263 173.849C242.973 170.559 241.597 169.934 241.221 171.525C241.132 171.864 240.703 171.971 240.453 172.168C237.736 171.239 239.72 174.26 237.682 173.956C237.968 174.401 238.069 174.94 237.962 175.458C237.855 175.976 237.549 176.432 237.11 176.727C235.018 178.961 232.605 180.981 230.656 183.341C228.636 181.071 226.598 178.836 224.489 176.637C223.72 175.833 224.06 173.92 221.021 175.189C220.091 175.657 219.235 176.259 218.482 176.977C214.657 179.605 213.798 180.838 215.282 181.518C215.604 181.661 215.604 182.108 215.765 182.394C214.317 184.878 217.678 183.502 216.909 185.451C217.405 185.268 217.953 185.285 218.436 185.498C218.92 185.712 219.302 186.105 219.501 186.595C221.289 189.097 222.612 191.958 224.382 194.353C224.131 194.854 223.881 195.354 223.613 195.837C221.503 199.734 219.072 203.47 217.124 207.457C214.96 211.908 212.225 216.073 211.099 221.007C210.348 224.368 208.06 227.068 206.415 230.053C205.736 231.304 207.649 233.074 211.546 234.665C215.443 236.256 215.801 235.005 216.283 234.379C219.137 230.342 221.535 226.001 223.434 221.436C224.346 219.524 225.418 217.682 226.473 215.841C226.473 215.626 226.348 215.358 226.473 215.215C228.153 212.14 230.048 209.155 231.836 206.134C232.268 205.3 232.633 204.434 232.927 203.542C233.023 203.463 233.102 203.366 233.159 203.256C233.606 203.685 234.035 204.096 234.446 204.543C237.521 207.761 240.238 211.265 243.277 214.518C246.656 218.093 249.427 222.259 253.449 225.244C256.202 227.336 257.686 230.607 259.599 233.396C260.403 234.576 262.852 233.664 266.07 230.965C269.288 228.265 268.09 227.103 267.733 226.353Z" fill="black"/>
<path d="M261.529 355.426C258.807 351.649 255.75 348.125 252.394 344.897C251.043 343.423 249.772 341.878 248.587 340.267C248.39 340.267 248.104 340.267 247.997 340.088C245.941 337.496 244.1 334.725 242.241 332.026C242.143 331.893 242.035 331.767 241.919 331.65C243.238 329.063 244.756 326.583 246.459 324.232C249.355 319.852 252.502 315.686 255.63 311.45C256.274 310.592 258.169 310.681 256.417 307.874C256.113 307.159 255.022 306.373 254.325 305.64C251.143 302.225 249.802 301.564 249.355 303.155C249.248 303.495 248.837 303.584 248.551 303.781C245.852 302.762 247.729 305.836 245.709 305.443C245.978 305.901 246.059 306.445 245.935 306.962C245.812 307.478 245.494 307.927 245.047 308.214C242.283 310.623 239.702 313.234 237.324 316.026C236.134 317.724 235.088 319.517 234.196 321.389C234.053 321.121 233.91 320.853 233.749 320.585C231.318 316.259 229.226 311.736 227.17 307.195C226.759 306.248 227.796 304.71 224.543 304.889C223.523 304.999 222.52 305.234 221.557 305.586C217.016 306.659 215.765 307.481 216.909 308.625C217.159 308.875 217.016 309.269 217.052 309.608C214.835 311.396 218.429 311.396 217.052 312.844C218.84 313.023 218.84 313.917 219.126 314.632C219.626 316.419 220.055 318.1 220.485 319.852C220.922 321.596 221.52 323.296 222.272 324.929C223.864 327.779 225.713 330.477 227.796 332.991C226.67 334.922 225.579 336.888 224.614 338.908C222.469 343.395 219.769 347.632 218.733 352.62C218.053 356.016 215.837 358.787 214.263 361.862C213.62 363.131 215.586 364.829 219.626 366.313C223.667 367.797 223.899 366.51 224.364 365.866C227.081 361.764 229.363 357.391 231.175 352.816C232.051 350.886 233.088 349.044 234.124 347.203C234.124 346.989 233.981 346.738 234.124 346.578C234.643 345.612 235.197 344.665 235.751 343.735C236.252 344.379 236.77 345.04 237.307 345.684C240.489 349.259 243.295 353.406 247.46 356.124C250.321 357.911 252.037 360.95 254.343 363.417C255.29 364.454 257.543 363.167 260.26 359.949C262.977 356.731 261.941 356.052 261.529 355.426Z" fill="black"/>
</svg>
