<svg width="88" height="190" viewBox="0 0 88 190" fill="none" xmlns="http://www.w3.org/2000/svg">
<path d="M11.4101 14.8736C15.7751 13.4688 20.1867 12.1093 24.575 10.7724C27.2827 9.95672 30.0604 9.45823 32.6046 8.07606C33.3049 7.69087 33.8418 6.76184 34.7054 6.98843H34.6821C35.429 6.60323 36.1293 6.05945 36.9229 5.87819C39.9107 5.15312 42.9218 3.88422 45.9096 3.58966C46.0263 3.567 46.1196 3.31776 46.283 3.27244C47.0767 3.09118 49.9711 2.5927 51.7451 2.0489C55.8766 0.802686 60.0548 -0.284915 64.6765 0.213571C65.4001 0.281547 74.947 -0.670124 76.3008 4.26942C77.7014 9.43555 69.3683 13.3328 68.1778 13.4235C65.3068 13.6727 62.2023 13.2195 59.728 14.8283C56.0867 17.1848 51.9085 17.5246 47.987 18.8388C44.4624 20.0171 40.7977 20.6968 37.2964 21.9204C34.0052 23.076 30.9474 25.0699 27.5628 25.9083C24.645 26.6333 21.3771 26.1122 18.3427 26.4067C17.6191 26.4747 17.0589 27.6076 16.2886 27.7209C15.6583 27.8116 14.6079 28.0608 13.861 27.7889C13.5342 27.6756 13.2074 27.517 12.9973 27.7663C12.0403 28.9218 2.00326 30.1907 0.416004 24.1635C-1.17125 18.2723 7.6287 16.0972 11.4101 14.8736Z" fill="black"/>
<path d="M25.7628 81.5368C29.6609 81.3782 33.5357 81.2649 37.4338 81.1743C39.8147 81.129 42.1956 81.4009 44.5998 80.7665C45.2534 80.5852 45.9303 79.8374 46.5839 80.3133C47.2841 80.1547 47.9844 79.8148 48.6613 79.8601C51.2756 79.9734 54.0066 79.5882 56.5042 80.1094C56.5976 80.132 56.7376 79.9054 56.8777 79.9054C57.578 79.9508 60.0289 80.2453 61.6161 80.2227C65.2808 80.1547 68.9222 80.2453 72.5168 81.9674C73.077 82.2393 81.0367 83.8933 80.8966 89.0368C80.7565 94.3615 73.0304 95.8343 72.05 95.6304C69.6691 95.0866 67.2649 93.7951 64.8607 94.6788C61.336 95.9476 57.8581 95.1319 54.3568 95.3358C51.2056 95.5171 48.0778 95.1546 44.9499 95.3812C42.0088 95.5851 39.0211 96.6727 36.08 96.5594C33.5357 96.4461 31.0381 95.0639 28.4938 94.5428C27.8869 94.4068 27.1633 95.3585 26.5098 95.2452C25.9729 95.1546 25.0625 95.1093 24.549 94.6561C24.3156 94.4522 24.0822 94.2029 23.8488 94.3842C22.775 95.2226 14.3719 93.7271 14.582 87.496C14.722 81.3782 22.3782 81.6728 25.7628 81.5368Z" fill="black"/>
<path d="M23.3431 158.421C28.0815 159.689 32.8199 161.004 37.535 162.34C40.4294 163.156 43.2071 164.312 46.2883 164.561C47.1286 164.629 48.1556 164.153 48.8092 164.833H48.7859C49.6729 164.924 50.6066 164.878 51.4469 165.15C54.5514 166.215 57.9826 166.849 60.8304 168.254C60.9471 168.3 61.1805 168.141 61.3439 168.209C62.1609 168.504 65.0319 169.682 66.9693 170.226C71.4043 171.494 75.7692 172.922 79.6207 175.89C80.2276 176.343 89.3309 180.875 87.6503 185.724C85.8763 190.777 76.1427 189.372 75.0223 188.783C72.2913 187.401 69.7937 185.293 66.6425 185.225C61.9974 185.158 58.0527 183.096 53.7811 182.008C49.9296 181.034 46.265 179.538 42.4135 178.609C38.7955 177.726 34.874 177.68 31.3494 176.502C28.3149 175.482 25.7006 173.239 22.8062 171.789C22.1293 171.449 20.9622 172.061 20.1919 171.744C19.5617 171.472 18.488 171.087 17.9978 170.452C17.7877 170.18 17.5776 169.863 17.2275 169.954C15.6869 170.384 5.97664 165.853 8.07742 159.961C10.0848 154.229 19.2349 157.333 23.3431 158.421Z" fill="black"/>
</svg>
