<?xml version="1.0" encoding="utf-8"?>
<!-- Generator: Adobe Illustrator 27.3.1, SVG Export Plug-In . SVG Version: 6.00 Build 0)  -->
<svg version="1.1" id="Layer_1" xmlns="http://www.w3.org/2000/svg" xmlns:xlink="http://www.w3.org/1999/xlink" x="0px" y="0px"
	 viewBox="0 0 841.89 595.28" style="enable-background:new 0 0 841.89 595.28;" xml:space="preserve">
<style type="text/css">
	.st0{fill:#213655;}
	.st1{fill:none;}
	.st2{fill:#D3C4B3;stroke:#000000;stroke-miterlimit:10;}
	.st3{fill:#2E5C6B;stroke:#000000;stroke-miterlimit:10;}
	.st4{fill:none;stroke:#000000;stroke-width:2;stroke-miterlimit:10;}
	.st5{fill:#6A98A4;stroke:#000000;stroke-miterlimit:10;}
	.st6{fill:#45717A;}
	.st7{fill:#B4937C;}
	.st8{fill:#E2D4C0;}
	.st9{fill:#764D79;}
	.st10{fill:#AEBFBF;}
	.st11{fill:#00A651;}
	.st12{fill:#3F3B61;}
	.st13{fill:#90A4AE;}
	.st14{fill:#2E5C6B;}
	.st15{fill:#6A98A4;}
	.st16{fill:#BFC0CD;}
	.st17{fill:#F1D2C4;}
	.st18{fill:#D3C4B3;}
	.st19{fill:#F7F1E9;}
	.st20{fill:#E2D4C0;stroke:#000000;stroke-miterlimit:10;}
	.st21{fill:#45717A;stroke:#000000;stroke-miterlimit:10;}
	.st22{fill:#B4937C;stroke:#000000;stroke-miterlimit:10;}
	.st23{fill:#BFC0CD;stroke:#000000;stroke-miterlimit:10;}
	.st24{fill:#764D79;stroke:#000000;stroke-miterlimit:10;}
	.st25{fill:#AEBFBF;stroke:#000000;stroke-miterlimit:10;}
	.st26{fill:#F1F2F2;stroke:#000000;stroke-miterlimit:10;}
	.st27{fill:#7B9DBA;}
	.st28{fill:#4D7293;}
	.st29{fill:#B3C8D3;}
	.st30{fill:#C5A67C;stroke:#000000;stroke-miterlimit:10;}
	.st31{fill:#62708F;}
	.st32{fill:#8FBCDB;}
	.st33{fill:#F1D2C4;stroke:#000000;stroke-miterlimit:10;}
	.st34{fill:#90A4AE;stroke:#000000;stroke-miterlimit:10;}
</style>
<rect x="-861.89" y="0.13" class="st0" width="841.89" height="595.28"/>
<rect x="-1717.36" y="5.19" class="st1" width="841.89" height="574.11"/>
<polygon class="st2" points="-566.97,477.54 -567.58,396.96 -499.73,353.11 -427.79,395.49 -427.05,476.27 -496.64,517.29 "/>
<polygon class="st3" points="-561.02,474.23 -561.4,400.4 -499.36,360.07 -433.77,398.73 -433.29,472.74 -496.91,510.49 "/>
<path class="st4" d="M-1678.11,171.67"/>
<path class="st4" d="M-1668.36,279.8"/>
<g>
	<g>
		<path class="st5" d="M-700.84,487.31"/>
	</g>
	<g>
		<path class="st5" d="M-841.49,527.87"/>
	</g>
	<g>
		<polygon class="st5" points="-514.16,473.77 -552.33,449.02 -543.63,435.59 -515.68,453.72 -453.55,398.45 -442.92,410.4 		"/>
	</g>
	<path class="st5" d="M-619.79,469.81"/>
	<path class="st5" d="M-548.55,406.43"/>
</g>
<rect x="-1881.36" y="65.98" class="st6" width="30.89" height="36.59"/>
<rect x="-1821.2" y="65.98" class="st7" width="36.59" height="36.59"/>
<rect x="-1926.89" y="65.98" class="st8" width="29.27" height="42.28"/>
<rect x="-1917.95" y="156.23" class="st9" width="29.27" height="40.65"/>
<rect x="-1865.92" y="159.48" class="st10" width="39.84" height="39.84"/>
<rect x="-1551.43" y="647.94" class="st11" width="39.43" height="44.72"/>
<rect x="-1917.95" y="242.41" class="st12" width="29.27" height="37.4"/>
<rect x="-1856.16" y="242.41" class="st13" width="30.08" height="39.84"/>
<rect x="-1633.06" y="650.38" class="st11" width="27.64" height="39.84"/>
<rect x="-1912.26" y="319.64" class="st14" width="23.58" height="42.28"/>
<rect x="-1856.16" y="322.08" class="st15" width="30.08" height="39.84"/>
<rect x="-1952.91" y="595.28" class="st11" width="32.52" height="39.84"/>
<rect x="-1907.38" y="411.51" class="st11" width="26.02" height="38.21"/>
<rect x="-1841.12" y="411.51" class="st11" width="31.3" height="38.21"/>
<rect x="-1879.33" y="596.09" class="st11" width="26.83" height="38.21"/>
<rect x="-1907.38" y="490.37" class="st11" width="26.02" height="39.84"/>
<rect x="-1846" y="490.37" class="st11" width="24.8" height="39.84"/>
<rect x="-1816.32" y="595.68" class="st11" width="26.83" height="39.02"/>
<rect x="-1438.17" y="649.16" class="st11" width="29.27" height="42.28"/>
<rect x="-1960.23" y="156.23" class="st16" width="23.58" height="40.65"/>
<rect x="-1960.23" y="246.47" class="st17" width="33.33" height="33.33"/>
<rect x="-1948.44" y="319.64" class="st18" width="21.54" height="47.15"/>
<rect x="-1940.71" y="411.51" class="st11" width="22.76" height="43.09"/>
<rect x="-1948.44" y="496.88" class="st11" width="21.54" height="43.09"/>
<rect x="-1929.33" class="st19" width="21.95" height="35.9"/>
<rect x="-1875.67" y="-7.19" class="st18" width="19.51" height="43.09"/>
<rect x="-1833.6" class="st14" width="23.78" height="31.84"/>
<rect x="-1777.3" class="st15" width="23.1" height="35.9"/>
<polygon class="st20" points="-1356.24,329.3 -1356.85,248.72 -1289,204.87 -1217.06,247.25 -1216.32,328.03 -1285.91,369.05 "/>
<polygon class="st21" points="-1350.29,325.98 -1350.67,252.16 -1288.63,211.83 -1223.04,250.49 -1222.56,324.5 -1286.18,362.25 "/>
<g>
	<g>
		<path class="st22" d="M-1490.11,339.07"/>
	</g>
	<g>
		<path class="st22" d="M-1630.76,379.63"/>
	</g>
	<g>
		<polygon class="st22" points="-1303.42,325.53 -1341.6,300.78 -1332.9,287.35 -1304.95,305.47 -1242.82,250.2 -1232.19,262.16 		
			"/>
	</g>
	<path class="st22" d="M-1409.06,321.57"/>
	<path class="st22" d="M-1337.82,258.19"/>
</g>
<polygon class="st23" points="-635.79,306.45 -636.4,225.87 -568.55,182.03 -496.61,224.4 -495.87,305.18 -565.46,346.21 "/>
<polygon class="st24" points="-629.85,303.14 -630.22,229.31 -568.18,188.98 -502.59,227.65 -502.11,301.66 -565.73,339.4 "/>
<g>
	<g>
		<path class="st25" d="M-769.66,316.22"/>
	</g>
	<g>
		<path class="st25" d="M-910.31,356.78"/>
	</g>
	<g>
		<polygon class="st25" points="-582.98,302.69 -621.15,277.93 -612.45,264.51 -584.5,282.63 -522.37,227.36 -511.74,239.31 		"/>
	</g>
	<path class="st25" d="M-688.61,298.72"/>
	<path class="st25" d="M-617.37,235.35"/>
</g>
<polygon class="st26" points="358.09,297.15 357.48,216.57 425.33,172.72 497.27,215.1 498.01,295.88 428.42,336.9 "/>
<polygon class="st27" points="364.03,293.84 363.66,220.01 425.7,179.68 491.29,218.34 491.77,292.35 428.15,330.1 "/>
<g>
	<g>
		<path class="st0" d="M224.22,306.92"/>
	</g>
	<g>
		<path class="st0" d="M83.57,347.48"/>
	</g>
	<g>
		<polygon class="st0" points="410.9,293.38 372.73,268.63 381.43,255.2 409.38,273.32 471.5,218.05 482.14,230.01 		"/>
	</g>
	<path class="st0" d="M305.27,289.42"/>
	<path class="st0" d="M376.51,226.04"/>
</g>
<rect x="-1952.91" y="678.57" class="st11" width="26.02" height="55.02"/>
<rect x="-1888.68" y="678.57" class="st11" width="32.52" height="55.02"/>
<rect x="-1791.12" y="678.57" class="st11" width="22.29" height="55.02"/>
<rect x="-1943.56" y="772.32" class="st11" width="16.67" height="52.99"/>
<rect x="-1881.36" y="772.32" class="st11" width="28.86" height="63.18"/>
<rect x="-1791.12" y="784.55" class="st11" width="22.29" height="50.95"/>
<rect x="-898.23" y="9.4" class="st1" width="841.89" height="574.11"/>
<polygon class="st28" points="-755.77,180.42 -756.38,99.83 -688.53,55.99 -616.59,98.36 -615.85,179.14 -685.44,220.17 "/>
<polygon class="st29" points="-749.83,177.1 -750.2,103.27 -688.16,62.95 -622.58,101.61 -622.09,175.62 -685.72,213.37 "/>
<g>
	<g>
		<path class="st30" d="M-352.72,161.66"/>
	</g>
	<g>
		<path class="st30" d="M-493.37,202.22"/>
	</g>
	<g>
		<polygon class="st30" points="-166.04,148.12 -204.22,123.37 -195.51,109.94 -167.57,128.06 -105.44,72.8 -94.81,84.75 		"/>
	</g>
	<path class="st30" d="M-271.68,144.16"/>
	<path class="st30" d="M-200.44,80.78"/>
</g>
<polygon class="st31" points="-781.93,444.26 -782.54,363.68 -714.69,319.83 -642.75,362.21 -642.01,442.98 -711.6,484.01 "/>
<polygon class="st32" points="-775.99,440.94 -776.36,367.11 -714.32,326.79 -648.74,365.45 -648.25,439.46 -711.87,477.21 "/>
<g>
	<g>
		<path class="st22" d="M-915.8,454.02"/>
	</g>
	<g>
		<path class="st22" d="M-1056.45,494.59"/>
	</g>
	<g>
		<polygon class="st22" points="-729.12,440.49 -767.3,415.74 -758.59,402.31 -730.64,420.43 -668.52,365.16 -657.88,377.12 		"/>
	</g>
	<path class="st22" d="M-834.75,436.52"/>
	<path class="st22" d="M-763.51,373.15"/>
</g>
<polygon class="st23" points="-353.58,339.19 -354.19,258.61 -286.34,214.77 -214.4,257.14 -213.66,337.92 -283.25,378.95 "/>
<polygon class="st27" points="-347.64,335.88 -348.01,262.05 -285.97,221.72 -220.39,260.38 -219.9,334.4 -283.53,372.14 "/>
<g>
	<g>
		<path class="st25" d="M-487.45,348.96"/>
	</g>
	<g>
		<path class="st25" d="M-628.1,389.52"/>
	</g>
	<g>
		<polygon class="st25" points="-300.77,335.43 -338.95,310.67 -330.24,297.25 -302.29,315.37 -240.17,260.1 -229.53,272.05 		"/>
	</g>
	<path class="st25" d="M-406.4,331.46"/>
	<path class="st25" d="M-335.16,268.09"/>
</g>
<polygon class="st33" points="-255.98,180.42 -256.59,99.83 -188.74,55.99 -116.8,98.36 -116.06,179.14 -185.65,220.17 "/>
<polygon class="st12" points="-250.03,177.1 -250.41,103.27 -188.37,62.95 -122.78,101.61 -122.3,175.62 -185.92,213.37 "/>
<g>
	<g>
		<path class="st34" d="M-389.85,190.18"/>
	</g>
	<g>
		<path class="st34" d="M-530.5,230.74"/>
	</g>
	<g>
		<polygon class="st34" points="-203.17,176.65 -241.34,151.89 -232.64,138.47 -204.69,156.59 -142.56,101.32 -131.93,113.28 		"/>
	</g>
	<path class="st34" d="M-308.8,172.68"/>
	<path class="st34" d="M-237.56,109.31"/>
</g>
</svg>
