<?xml version="1.0" encoding="utf-8"?>
<!-- Generator: Adobe Illustrator 27.3.1, SVG Export Plug-In . SVG Version: 6.00 Build 0)  -->
<svg version="1.1" id="Layer_1" xmlns="http://www.w3.org/2000/svg" xmlns:xlink="http://www.w3.org/1999/xlink" x="0px" y="0px"
	 viewBox="0 0 841.89 595.28" style="enable-background:new 0 0 841.89 595.28;" xml:space="preserve">
<style type="text/css">
	.st0{fill:#213655;}
	.st1{fill:none;}
	.st2{fill:#D3C4B3;stroke:#000000;stroke-miterlimit:10;}
	.st3{fill:#2E5C6B;stroke:#000000;stroke-miterlimit:10;}
	.st4{fill:none;stroke:#000000;stroke-width:2;stroke-miterlimit:10;}
	.st5{fill:#6A98A4;stroke:#000000;stroke-miterlimit:10;}
	.st6{fill:#45717A;}
	.st7{fill:#B4937C;}
	.st8{fill:#E2D4C0;}
	.st9{fill:#764D79;}
	.st10{fill:#AEBFBF;}
	.st11{fill:#00A651;}
	.st12{fill:#3F3B61;}
	.st13{fill:#90A4AE;}
	.st14{fill:#2E5C6B;}
	.st15{fill:#6A98A4;}
	.st16{fill:#BFC0CD;}
	.st17{fill:#F1D2C4;}
	.st18{fill:#D3C4B3;}
	.st19{fill:#F7F1E9;}
	.st20{fill:#E2D4C0;stroke:#000000;stroke-miterlimit:10;}
	.st21{fill:#45717A;stroke:#000000;stroke-miterlimit:10;}
	.st22{fill:#B4937C;stroke:#000000;stroke-miterlimit:10;}
	.st23{fill:#BFC0CD;stroke:#000000;stroke-miterlimit:10;}
	.st24{fill:#764D79;stroke:#000000;stroke-miterlimit:10;}
	.st25{fill:#AEBFBF;stroke:#000000;stroke-miterlimit:10;}
	.st26{fill:#F1F2F2;stroke:#000000;stroke-miterlimit:10;}
	.st27{fill:#4D7293;}
	.st28{fill:#B3C8D3;}
	.st29{fill:#C5A67C;stroke:#000000;stroke-miterlimit:10;}
	.st30{fill:#62708F;}
	.st31{fill:#8FBCDB;}
	.st32{fill:#7B9DBA;}
	.st33{fill:#F1D2C4;stroke:#000000;stroke-miterlimit:10;}
	.st34{fill:#90A4AE;stroke:#000000;stroke-miterlimit:10;}
</style>
<rect x="861.89" y="0.13" class="st0" width="841.89" height="595.28"/>
<rect x="6.42" y="5.19" class="st1" width="841.89" height="574.11"/>
<polygon class="st2" points="1156.81,477.54 1156.2,396.96 1224.05,353.11 1295.99,395.49 1296.73,476.27 1227.14,517.29 "/>
<polygon class="st3" points="1162.76,474.23 1162.38,400.4 1224.42,360.07 1290.01,398.73 1290.49,472.74 1226.87,510.49 "/>
<path class="st4" d="M45.67,171.67"/>
<path class="st4" d="M55.42,279.8"/>
<g>
	<g>
		<path class="st5" d="M1022.94,487.31"/>
	</g>
	<g>
		<path class="st5" d="M882.29,527.87"/>
	</g>
	<g>
		<polygon class="st5" points="1209.62,473.77 1171.45,449.02 1180.15,435.59 1208.1,453.72 1270.23,398.45 1280.86,410.4 		"/>
	</g>
	<path class="st5" d="M1103.99,469.81"/>
	<path class="st5" d="M1175.23,406.43"/>
</g>
<rect x="-157.59" y="65.98" class="st6" width="30.89" height="36.59"/>
<rect x="-97.42" y="65.98" class="st7" width="36.59" height="36.59"/>
<rect x="-203.11" y="65.98" class="st8" width="29.27" height="42.28"/>
<rect x="-194.17" y="156.23" class="st9" width="29.27" height="40.65"/>
<rect x="-142.14" y="159.48" class="st10" width="39.84" height="39.84"/>
<rect x="172.35" y="647.94" class="st11" width="39.43" height="44.72"/>
<rect x="-194.17" y="242.41" class="st12" width="29.27" height="37.4"/>
<rect x="-132.38" y="242.41" class="st13" width="30.08" height="39.84"/>
<rect x="90.72" y="650.38" class="st11" width="27.64" height="39.84"/>
<rect x="-188.48" y="319.64" class="st14" width="23.58" height="42.28"/>
<rect x="-132.38" y="322.08" class="st15" width="30.08" height="39.84"/>
<rect x="-229.13" y="595.28" class="st11" width="32.52" height="39.84"/>
<rect x="-183.6" y="411.51" class="st11" width="26.02" height="38.21"/>
<rect x="-117.34" y="411.51" class="st11" width="31.3" height="38.21"/>
<rect x="-155.55" y="596.09" class="st11" width="26.83" height="38.21"/>
<rect x="-183.6" y="490.37" class="st11" width="26.02" height="39.84"/>
<rect x="-122.22" y="490.37" class="st11" width="24.8" height="39.84"/>
<rect x="-92.54" y="595.68" class="st11" width="26.83" height="39.02"/>
<rect x="285.61" y="649.16" class="st11" width="29.27" height="42.28"/>
<rect x="-236.45" y="156.23" class="st16" width="23.58" height="40.65"/>
<rect x="-236.45" y="246.47" class="st17" width="33.33" height="33.33"/>
<rect x="-224.66" y="319.64" class="st18" width="21.54" height="47.15"/>
<rect x="-216.93" y="411.51" class="st11" width="22.76" height="43.09"/>
<rect x="-224.66" y="496.88" class="st11" width="21.54" height="43.09"/>
<rect x="-205.55" class="st19" width="21.95" height="35.9"/>
<rect x="-151.89" y="-7.19" class="st18" width="19.51" height="43.09"/>
<rect x="-109.82" class="st14" width="23.78" height="31.84"/>
<rect x="-53.52" class="st15" width="23.1" height="35.9"/>
<polygon class="st20" points="367.54,329.3 366.93,248.72 434.78,204.87 506.72,247.25 507.46,328.03 437.87,369.05 "/>
<polygon class="st21" points="373.49,325.98 373.11,252.16 435.15,211.83 500.74,250.49 501.22,324.5 437.6,362.25 "/>
<g>
	<g>
		<path class="st22" d="M233.67,339.07"/>
	</g>
	<g>
		<path class="st22" d="M93.02,379.63"/>
	</g>
	<g>
		<polygon class="st22" points="420.35,325.53 382.18,300.78 390.88,287.35 418.83,305.47 480.96,250.2 491.59,262.16 		"/>
	</g>
	<path class="st22" d="M314.72,321.57"/>
	<path class="st22" d="M385.96,258.19"/>
</g>
<polygon class="st23" points="1087.99,306.45 1087.38,225.87 1155.23,182.03 1227.17,224.4 1227.91,305.18 1158.32,346.21 "/>
<polygon class="st24" points="1093.93,303.14 1093.56,229.31 1155.6,188.98 1221.19,227.65 1221.67,301.66 1158.05,339.4 "/>
<g>
	<g>
		<path class="st25" d="M954.12,316.22"/>
	</g>
	<g>
		<path class="st25" d="M813.47,356.78"/>
	</g>
	<g>
		<polygon class="st25" points="1140.8,302.69 1102.63,277.93 1111.33,264.51 1139.28,282.63 1201.41,227.36 1212.04,239.31 		"/>
	</g>
	<path class="st25" d="M1035.17,298.72"/>
	<path class="st25" d="M1106.41,235.35"/>
</g>
<polygon class="st26" points="2081.87,297.15 2081.26,216.57 2149.11,172.72 2221.05,215.1 2221.79,295.88 2152.2,336.9 "/>
<polygon class="st0" points="2087.81,293.84 2087.44,220.01 2149.48,179.68 2215.06,218.34 2215.55,292.35 2151.93,330.1 "/>
<g>
	<g>
		<path class="st19" d="M1948,306.92"/>
	</g>
	<g>
		<path class="st19" d="M1807.35,347.48"/>
	</g>
	<g>
		<polygon class="st19" points="2134.68,293.38 2096.51,268.63 2105.21,255.2 2133.16,273.32 2195.28,218.05 2205.92,230.01 		"/>
	</g>
	<path class="st19" d="M2029.05,289.42"/>
	<path class="st19" d="M2100.29,226.04"/>
</g>
<rect x="-229.13" y="678.57" class="st11" width="26.02" height="55.02"/>
<rect x="-164.9" y="678.57" class="st11" width="32.52" height="55.02"/>
<rect x="-67.34" y="678.57" class="st11" width="22.29" height="55.02"/>
<rect x="-219.78" y="772.32" class="st11" width="16.67" height="52.99"/>
<rect x="-157.59" y="772.32" class="st11" width="28.86" height="63.18"/>
<rect x="-67.34" y="784.55" class="st11" width="22.29" height="50.95"/>
<rect x="825.55" y="9.4" class="st1" width="841.89" height="574.11"/>
<polygon class="st27" points="968.01,180.42 967.4,99.83 1035.25,55.99 1107.19,98.36 1107.92,179.14 1038.33,220.17 "/>
<polygon class="st28" points="973.95,177.1 973.58,103.27 1035.62,62.95 1101.2,101.61 1101.69,175.62 1038.06,213.37 "/>
<g>
	<g>
		<path class="st29" d="M1371.06,161.66"/>
	</g>
	<g>
		<path class="st29" d="M1230.41,202.22"/>
	</g>
	<g>
		<polygon class="st29" points="1557.74,148.12 1519.56,123.37 1528.27,109.94 1556.21,128.06 1618.34,72.8 1628.97,84.75 		"/>
	</g>
	<path class="st29" d="M1452.1,144.16"/>
	<path class="st29" d="M1523.34,80.78"/>
</g>
<polygon class="st30" points="941.85,444.26 941.24,363.68 1009.09,319.83 1081.03,362.21 1081.77,442.98 1012.18,484.01 "/>
<polygon class="st31" points="947.79,440.94 947.42,367.11 1009.46,326.79 1075.04,365.45 1075.53,439.46 1011.9,477.21 "/>
<g>
	<g>
		<path class="st22" d="M807.98,454.02"/>
	</g>
	<g>
		<path class="st22" d="M667.33,494.59"/>
	</g>
	<g>
		<polygon class="st22" points="994.66,440.49 956.48,415.74 965.19,402.31 993.14,420.43 1055.26,365.16 1065.9,377.12 		"/>
	</g>
	<path class="st22" d="M889.03,436.52"/>
	<path class="st22" d="M960.27,373.15"/>
</g>
<polygon class="st23" points="1370.2,339.19 1369.59,258.61 1437.44,214.77 1509.38,257.14 1510.11,337.92 1440.52,378.95 "/>
<polygon class="st32" points="1376.14,335.88 1375.77,262.05 1437.81,221.72 1503.39,260.38 1503.88,334.4 1440.25,372.14 "/>
<g>
	<g>
		<path class="st25" d="M1236.33,348.96"/>
	</g>
	<g>
		<path class="st25" d="M1095.68,389.52"/>
	</g>
	<g>
		<polygon class="st25" points="1423.01,335.43 1384.83,310.67 1393.54,297.25 1421.49,315.37 1483.61,260.1 1494.25,272.05 		"/>
	</g>
	<path class="st25" d="M1317.38,331.46"/>
	<path class="st25" d="M1388.61,268.09"/>
</g>
<polygon class="st33" points="1467.8,180.42 1467.19,99.83 1535.04,55.99 1606.98,98.36 1607.72,179.14 1538.13,220.17 "/>
<polygon class="st12" points="1473.75,177.1 1473.37,103.27 1535.41,62.95 1601,101.61 1601.48,175.62 1537.86,213.37 "/>
<g>
	<g>
		<path class="st34" d="M1333.93,190.18"/>
	</g>
	<g>
		<path class="st34" d="M1193.28,230.74"/>
	</g>
	<g>
		<polygon class="st34" points="1520.61,176.65 1482.44,151.89 1491.14,138.47 1519.09,156.59 1581.22,101.32 1591.85,113.28 		"/>
	</g>
	<path class="st34" d="M1414.98,172.68"/>
	<path class="st34" d="M1486.22,109.31"/>
</g>
</svg>
