<svg width="71" height="77" viewBox="0 0 71 77" fill="none" xmlns="http://www.w3.org/2000/svg">
<path d="M37.7665 30.2784C38.5015 28.9665 41.274 24.4449 42.8185 21.4025C46.3818 14.3781 50.1126 7.45613 55.6112 1.49239C56.4671 0.562008 57.4812 -1.26153 63.0263 1.76221C68.7946 4.9162 71.5021 7.95854 70.274 9.72626C67.2968 14.006 63.4915 17.8764 62.0587 22.947C59.9561 30.3807 55.6019 36.577 52.3362 43.3781C50.8662 46.4297 49.2567 49.407 47.6564 52.3842L45.2747 56.8593L44.121 59.1201L42.4463 62.4509C41.7857 63.7534 41.1624 65.1118 40.4646 66.405C39.7668 67.6982 39.0039 68.9077 38.1944 69.9963C36.5477 72.1733 34.6776 73.8481 32.4168 74.9831C30.1932 76.1554 27.4021 76.6206 24.8063 76.3694C22.2106 76.0903 19.8567 75.1692 17.6982 73.5689C15.8374 72.2106 14.1814 70.2568 12.7672 67.968C12.0601 66.8237 11.4367 65.5863 10.8227 64.3861L9.91092 62.5905L9.46429 61.6973C9.41778 61.6135 9.39921 61.5577 9.3899 61.5298L9.3434 61.4089L9.25033 61.167C8.22691 58.5805 7.25934 55.9569 6.07775 53.4634C5.51953 52.2912 3.70528 51.5841 3.05402 50.3281C2.5144 49.286 1.52816 47.602 1.3886 46.3274C1.32347 45.7785 1.31416 45.1737 0.858278 44.8853C-1.23508 43.527 0.393115 41.8244 6.93369 38.6797C8.37578 37.9912 10.0412 36.7352 11.2507 36.6328C11.2972 36.6328 11.3995 36.6142 11.4553 36.6049C16.0421 35.7211 15.2048 38.2238 16.191 39.6194C18.6007 43.0525 20.908 46.5414 23.1967 50.0582L24.0527 51.3793C24.3225 51.7887 24.704 52.3935 24.6854 52.3377L25.104 52.8866C25.3645 53.2402 25.6343 53.5751 25.9693 53.7891C26.174 53.9193 26.4159 54.0403 26.6671 54.0403C26.9276 54.0496 27.1788 53.9286 27.3555 53.7332C27.7091 53.3332 27.858 52.6447 27.7091 52.0306C27.6719 51.8632 27.4765 51.6026 27.3369 51.4538L27.2532 51.3515C27.2532 51.3236 27.216 51.3608 27.2439 51.2863C27.2811 51.2026 27.309 51.1189 27.3555 51.0444C27.5137 50.7281 27.7184 50.4304 28.0068 50.1885L27.9882 50.2071C28.4999 48.7929 28.8255 47.2857 29.5512 45.9832C32.2679 41.0521 34.566 35.6187 37.6269 31.1343C37.7293 30.9389 37.6083 30.5575 37.7665 30.2784Z" fill="black"/>
</svg>
