<svg width="168" height="59" viewBox="0 0 168 59" fill="none" xmlns="http://www.w3.org/2000/svg">
<path d="M14.5871 7.08126L25.7693 15.6202L29.1432 18.3159L30.0996 19.0636C30.4648 19.3592 31.0736 19.8637 31.5258 20.2811C32.4997 21.168 33.4212 22.1243 34.2038 23.1678C35.0734 24.2808 36.1865 25.5331 36.117 27.0113V26.9939C36.5344 28.4547 36.7083 30.0373 36.3431 31.5503C35.6474 34.4024 33.6821 36.8893 31.2126 38.924L30.1692 39.8283L29.2649 40.5934C28.6562 41.0804 28.0302 41.55 27.4041 41.9674C27.2998 42.0369 27.2998 42.2804 27.1606 42.3847C26.5172 42.9239 24.1171 44.6976 22.7085 45.9671C19.4216 48.9062 16.0653 51.7584 11.9089 53.6366C11.2654 53.9322 3.16129 59.306 0.639624 56.2974C-1.98639 53.1671 4.25698 46.1932 5.26565 45.5324C7.71775 43.9324 10.5523 42.7673 12.2914 40.3674C14.8305 36.837 18.413 34.5414 21.4912 31.6545L23.3345 29.9851C23.5258 29.8112 23.7172 29.6545 23.8738 29.4459C24.2216 29.0633 24.2041 28.4199 23.8215 28.0721C23.6476 27.8982 23.4216 27.7764 23.1955 27.7242C23.0564 27.672 23.0216 27.7243 22.8129 27.6199L21.7869 27.0113C20.2565 26.0722 18.7435 25.1157 17.387 23.9679C15.0392 22.0027 13.3 19.2722 11.161 17.0462C10.6566 16.5245 9.52639 16.5419 8.95249 15.9854C8.48294 15.5332 7.64812 14.8203 7.36987 14.142C7.24813 13.8464 7.14369 13.5159 6.83065 13.4638C5.43938 13.1855 -1.81251 5.93347 1.26567 2.29878C4.25689 -1.30112 11.335 4.62916 14.5871 7.08126Z" fill="black"/>
<path d="M91.5249 43.5661C90.6901 44.2618 87.6119 46.6096 85.7684 48.2618C81.4729 52.053 77.1079 55.7573 71.9254 58.505C71.1254 58.9398 69.9429 59.8962 67.4212 56.8876C64.7952 53.7398 64.0299 51.2703 65.3168 50.3834C68.4298 48.2269 71.9428 46.488 74.3428 43.5315C77.8557 39.1838 82.3946 36.0708 86.4467 32.3491C87.351 31.5144 88.2727 30.6969 89.2118 29.897L89.7684 29.4102C89.8554 29.3406 89.9249 29.2536 89.9945 29.1667C90.3075 28.8015 90.0814 28.2449 89.6988 28.0362C89.664 28.0014 89.6119 27.984 89.5597 27.9666C89.5249 27.9666 89.4727 27.9492 89.264 27.7753L87.9945 26.9232L85.0728 25.0102C83.125 23.7407 81.212 22.4363 79.4381 20.958C76.3774 18.4016 73.9254 15.08 71.0733 12.28C70.395 11.6192 69.0734 11.4627 68.3082 10.767C67.6821 10.1931 66.6037 9.27152 66.1689 8.47154C65.9776 8.12372 65.8039 7.74114 65.4387 7.6194C63.7517 7.09768 64.3082 5.72378 67.5951 2.59343C68.3081 1.89779 69.0211 0.819468 69.769 0.541215C69.8037 0.523824 69.8558 0.506595 69.8906 0.489204C72.5514 -0.84989 72.708 0.906431 73.6993 1.63685C78.6035 5.25414 83.3511 9.09764 88.151 12.8541L92.5335 16.367C93.2639 16.9409 94.0118 17.5148 94.777 18.0539C95.5422 18.6278 96.2725 19.0452 97.5073 20.0365C98.9507 21.2191 100.742 22.5234 101.246 24.4016L101.229 24.3668C102.203 26.1059 102.846 28.1579 102.551 30.1753C102.325 32.0883 101.542 33.9144 100.342 35.497C99.7507 36.2969 99.0378 37.0446 98.29 37.7402L96.6377 39.2184C95.0725 40.5923 93.5074 41.9141 91.9074 43.0445C91.7509 43.1489 91.6988 43.427 91.5249 43.5661Z" fill="black"/>
<path d="M158.419 43.7171C157.758 44.2562 155.323 46.0822 153.88 47.3691C150.523 50.3777 147.097 53.282 142.854 55.2298C142.193 55.5428 141.271 56.2906 138.75 53.282C136.124 50.1517 135.185 47.8039 136.211 47.143C138.715 45.5083 141.584 44.3082 143.376 41.8561C145.984 38.2736 149.636 35.9259 152.784 32.9694L153.862 31.9957L153.984 31.8738L154.002 31.8564L154.054 31.8042L154.141 31.7174C154.262 31.5956 154.401 31.4913 154.506 31.3522C154.749 31.074 154.575 30.6218 154.245 30.4653C154.088 30.3783 153.897 30.3434 153.741 30.3608C153.706 30.3608 153.723 30.3782 153.671 30.3608L153.375 30.187L152.784 29.8218L151.619 29.1087C150.054 28.1522 148.523 27.1609 147.132 25.9957C144.732 23.9784 142.958 21.2134 140.767 18.9525C140.245 18.4134 139.098 18.4134 138.524 17.8569C138.037 17.3874 137.202 16.6568 136.906 15.9786C136.785 15.6829 136.663 15.3525 136.367 15.2829C134.941 14.9872 135.585 13.6657 138.767 10.4658C139.463 9.75278 140.211 8.6918 140.871 8.36137C140.906 8.34398 140.958 8.30936 140.993 8.30936C143.445 6.79636 143.393 8.39631 144.193 8.95281C148.089 11.7527 151.81 14.7612 155.601 17.6828L159.045 20.4307C159.619 20.8829 160.193 21.3177 160.819 21.7524C161.897 22.5524 162.993 23.3523 163.984 24.274C165.062 25.2479 166.419 26.2913 166.61 27.7348V27.7174C167.271 29.0565 167.792 30.5869 167.601 32.1347C167.323 35.0564 165.723 37.5954 163.201 39.7345L161.549 41.1605L160.627 41.9258C160.001 42.4301 159.375 42.8995 158.732 43.3343C158.575 43.3691 158.558 43.6127 158.419 43.7171Z" fill="black"/>
</svg>
