<svg width="616" height="13" viewBox="0 0 616 13" fill="none" xmlns="http://www.w3.org/2000/svg">
<path d="M615.703 4.72036C615.518 4.48139 615.288 4.2823 615.027 4.13456C614.941 4.08361 614.852 4.04005 614.759 4.00437C614.638 3.95897 614.514 3.91987 614.389 3.88721C614.083 3.8091 613.854 3.77002 613.637 3.73096C611.992 3.52267 610.564 3.47061 609.072 3.37948L604.659 3.21024L595.86 2.98895L578.3 2.75459L543.194 2.5333L472.967 2.40311H402.753H288.328C250.186 2.40311 212.044 2.40311 173.915 2.52027H160.181C160.795 2.22328 161.455 2.03825 162.132 1.97353C175.866 0.268133 165.027 -0.239583 124.003 0.0988921C115.076 0.177002 105.614 0.0988921 96.4963 0.0988921C75.3659 0.0338008 39.8255 0.0988921 18.491 0.0988921C15.2647 0.0988921 12.0001 0.176981 8.69729 0.281127C7.0395 0.281127 5.38171 0.385291 3.5964 0.502455H2.9333L2.16816 0.606584C1.98769 0.629962 1.80882 0.664766 1.63257 0.710752H1.5178L1.30102 0.788859C1.15624 0.863046 1.01573 0.945633 0.880192 1.03621C0.705293 1.16329 0.550474 1.31696 0.421112 1.49186C0.153459 1.84676 0.00579335 2.2807 0.000286495 2.72857C-0.00799287 3.25316 0.163403 3.76427 0.484877 4.17362C0.612706 4.31712 0.753598 4.44788 0.905683 4.56415L1.14798 4.72036L1.31376 4.79847L1.65808 4.91563C1.96505 4.98663 2.2759 5.03883 2.58898 5.07188C3.5199 5.17603 4.34879 5.21506 5.13943 5.25411C11.8598 5.55353 18.542 5.61861 25.1732 5.6837L40.7691 5.82692L36.6374 5.91806L33.3091 6.04825H29.3176V6.51689H28.9988L28.6163 6.64708C28.4417 6.71742 28.2783 6.81395 28.1317 6.93348C27.8359 7.16396 27.6104 7.47547 27.4813 7.83175C27.3787 8.13226 27.3448 8.45277 27.3824 8.76871C27.42 9.08464 27.528 9.3876 27.6981 9.65429L28.425 10.4874H29.968V10.7088C29.968 10.852 29.968 10.7088 29.968 10.7869H30.0318H30.4271L31.358 10.7088L33.2581 10.6046H33.6661C129.499 11.5289 225.319 10.865 321.241 10.4484H343.443C341.25 10.7088 340 10.9952 339.834 11.3206C339.069 12.7917 377.083 12.7917 399.438 12.8568L453.099 13H479.879C484.351 13 488.831 13 493.32 13C495.564 13 497.808 13 500.078 12.8828C501.213 12.8828 502.335 12.8047 503.534 12.7136L504.503 12.6225L504.848 12.5574H505.128C505.358 12.2319 505.256 13.1041 506.633 11.1904C506.622 10.5351 506.532 9.88368 506.365 9.25073L544.711 9.18562L579.767 9.04243L597.314 8.87319L606.113 8.69096L610.538 8.52171C611.278 8.52171 612.017 8.44361 612.795 8.3655C613.263 8.3364 613.727 8.27108 614.185 8.17019H614.376L614.657 8.05303C614.962 7.92379 615.229 7.71776 615.435 7.45421C616.328 7.44119 615.958 4.08247 615.703 4.72036Z" fill="#4633FF"/>
</svg>
