<svg width="567" height="25" viewBox="0 0 567 25" fill="none" xmlns="http://www.w3.org/2000/svg">
<path fill-rule="evenodd" clip-rule="evenodd" d="M385.23 0.827769C381.154 0.817409 377.874 0.809073 375.89 0.805794C375.175 0.805794 374.486 0.818413 373.843 0.830179C373.04 0.844866 372.31 0.858226 371.694 0.844061C354.001 0.746669 335.311 0.757717 316.588 0.768785C305.883 0.775113 295.167 0.781448 284.62 0.767528C279.056 0.758253 273.484 0.802926 267.911 0.847614C265.85 0.864145 263.788 0.880677 261.726 0.894482C256.712 0.808007 251.739 0.876174 246.784 0.944104C244.503 0.97538 242.225 1.00661 239.948 1.02267C220.37 1.15495 200.75 1.14725 181.134 1.13955C174.268 1.13685 167.404 1.13416 160.541 1.13747C147.268 1.14532 133.993 1.14834 120.718 1.15136C90.8462 1.15815 60.9724 1.16495 31.1048 1.22677C28.9162 1.22995 26.7316 1.20306 24.5533 1.17626C17.9839 1.09542 11.4719 1.01529 5.0823 1.7625C5.0249 1.76888 4.9388 1.77526 4.8527 1.78164C4.7666 1.78802 4.6805 1.79439 4.6231 1.80077C2.73516 1.96382 2.56182 2.23656 2.39035 2.50636C2.30693 2.63761 2.22396 2.76816 1.94426 2.88505C-1.94636 4.54335 1.12789 5.06634 12.7232 4.82397C14.8496 4.78101 17.0845 4.82847 19.2757 4.875C19.6872 4.88373 20.0971 4.89244 20.5044 4.9005C25.4506 5.00619 33.1988 5.03307 39.1422 5.0537C40.3724 5.05796 41.5252 5.06196 42.5598 5.06634C46.2631 5.0858 50.1544 5.02612 53.9586 4.96777C57.6367 4.91136 61.2335 4.85619 64.5004 4.87501C75.6808 4.9356 86.8592 5.03419 98.0371 5.13277C115.095 5.28321 132.152 5.43364 149.214 5.44905C168.008 5.47103 186.803 5.37937 205.599 5.2877C219.526 5.21979 233.455 5.15186 247.385 5.13014C264.81 5.10463 282.235 5.11739 299.66 5.13014C317.085 5.1429 334.51 5.15566 351.934 5.13014C364.488 5.11364 377.04 5.1265 389.594 5.13936C415.843 5.16626 442.096 5.19316 468.372 4.95154C487.993 4.77248 507.76 4.92762 527.509 5.0826C534.491 5.13741 541.472 5.19219 548.443 5.23218C559.464 5.29596 566.659 4.42854 566.888 2.92332C567.09 1.57903 557.762 1.47732 551.372 1.40763C550.91 1.40259 550.464 1.39772 550.037 1.39257C509.587 0.907833 469.023 0.882341 428.471 0.895097C415.449 0.904574 397.013 0.857716 385.23 0.827769ZM269.511 19.7243C260.692 19.7442 251.853 19.7642 248.584 19.7727L248.413 19.777C247.458 19.801 246.58 19.823 245.918 19.811C237.194 19.811 228.089 19.8079 218.891 19.8047C209.501 19.8015 200.014 19.7983 190.735 19.7983C187.652 19.7983 184.564 19.8344 181.474 19.8705C179.725 19.891 177.976 19.9114 176.227 19.9253C173.041 19.8386 169.885 19.9069 166.743 19.9749C165.298 20.0061 163.857 20.0373 162.416 20.0534C152.071 20.1637 141.706 20.1718 131.337 20.1799C124.919 20.1849 118.499 20.19 112.081 20.2192C84.7315 20.3213 57.3696 20.4999 30.0204 21.0356C28.6389 21.0641 27.2581 21.0628 25.8807 21.0614C21.713 21.0572 17.5758 21.053 13.5395 21.8775C13.4757 21.8903 13.3354 21.9158 13.2588 21.9285C12.0665 22.1172 11.9644 22.3867 11.8625 22.6555C11.8128 22.7864 11.7633 22.9171 11.5878 23.0383C9.16411 24.7349 11.1158 25.2196 18.4634 24.8497C19.9084 24.7803 21.4372 24.8053 22.9264 24.8295C23.0805 24.832 23.2341 24.8345 23.3872 24.8369C25.912 24.8794 29.5812 24.8426 32.8771 24.8096C34.5268 24.793 36.0829 24.7774 37.3552 24.7732C39.6743 24.7539 42.1093 24.6639 44.492 24.5759C46.8537 24.4886 49.164 24.4032 51.2594 24.3905C60.2079 24.4223 69.1531 24.4511 78.0983 24.4798C87.0435 24.5085 95.9888 24.5372 104.937 24.5691C115.308 24.4989 125.675 24.4319 136.043 24.365C146.411 24.298 156.778 24.231 167.149 24.1609C178.197 24.1609 189.246 24.1577 200.293 24.1545C211.336 24.1513 222.378 24.1481 233.417 24.1481C238.735 24.1261 244.053 24.1135 249.371 24.101C268.648 24.0556 287.928 24.0102 307.224 23.5103C317.424 23.2399 327.685 23.1707 337.953 23.1015C344.635 23.0564 351.32 23.0114 357.993 22.9108C364.984 22.8087 369.525 21.8392 369.627 20.334C369.722 18.9871 363.884 19.0191 359.84 19.0413C359.518 19.043 359.207 19.0447 358.912 19.0457C334.366 19.2534 309.761 19.4611 285.153 19.6688L281.903 19.6962C278.227 19.7047 273.872 19.7145 269.511 19.7243Z" fill="#4633FF"/>
</svg>
