<svg width="710" height="25" viewBox="0 0 710 25" fill="none" xmlns="http://www.w3.org/2000/svg">
<path d="M709.025 6.10831C708.777 5.98406 708.51 5.90018 708.234 5.86005C708.111 5.85134 707.988 5.85134 707.865 5.86005H707.291C705.877 5.78558 704.615 5.78557 703.302 5.77315C698.115 5.77315 692.979 5.77315 687.843 5.77315H679.992C680.054 5.56208 680.097 5.34607 680.12 5.12768C679.661 3.31547 678.935 3.57619 678.743 3.32794C678.374 3.18171 677.989 3.07353 677.596 3.00521L676.704 2.85626C676.143 2.78179 675.595 2.73212 675.047 2.68247C670.727 2.37216 666.534 2.32248 662.303 2.26041L649.673 2.16117H627.727C674.041 0.597203 635.169 0.0882298 491.818 0.311654L394.768 0.224833L119.624 0.0386165H50.1528C38.4277 0.0386165 26.6772 -0.0482706 14.8884 0.0386165C11.9444 0.0386165 9.00036 0.0386467 5.96714 0.224833C5.22795 0.224833 4.47601 0.224803 3.69859 0.348927C3.3035 0.348927 2.92117 0.348897 2.42412 0.473021C2.10739 0.505321 1.79534 0.571975 1.49377 0.671663C1.40436 0.698402 1.31872 0.735889 1.23887 0.783332C1.07716 0.859557 0.923486 0.951057 0.780067 1.05645C0.521587 1.27076 0.317078 1.54 0.182293 1.84343C0.0475076 2.14687 -0.013946 2.47635 0.0026533 2.80656C0.308524 4.18434 1.27711 4.46987 1.08594 4.39539C1.21871 4.46906 1.35986 4.5274 1.50652 4.56918H1.71043H1.96532C2.78057 4.68184 3.60186 4.74811 4.42503 4.76775L6.65534 4.85465C12.5688 4.99118 18.4186 4.99119 24.2684 5.01601H32.3867C32.3245 5.44595 32.4144 5.88371 32.6416 6.25726L32.8456 6.59234H30.0545C28.334 6.59234 26.6134 6.59235 24.8419 6.75371L23.4655 6.86545C22.9092 6.92831 22.3593 7.03627 21.8215 7.18819C21.5557 7.27568 21.303 7.39667 21.0695 7.54812C20.6803 7.78893 20.3779 8.14191 20.2043 8.55792C20.0307 8.97394 19.9946 9.43229 20.1009 9.86924C20.3558 10.6885 20.6107 10.9491 21.5411 11.4456C21.8106 11.5277 22.0883 11.5817 22.3695 11.607C22.943 11.607 23.3253 11.607 23.7586 11.607L60.323 11.9421H59.7622L58.9211 12.0538L58.373 12.1904C57.9377 12.2934 57.5405 12.5126 57.226 12.8234C57.031 13.0466 56.8852 13.3064 56.7978 13.5868C56.7103 13.8672 56.6831 14.1622 56.7178 14.4533C56.7524 14.7444 56.8483 15.0254 56.9993 15.2788C57.1503 15.5323 57.3533 15.7528 57.5956 15.9265C57.8004 16.0589 58.0181 16.1711 58.2456 16.2617L59.125 16.5844C60.0396 16.825 60.9732 16.991 61.916 17.0809H61.1259C60.4504 17.1429 59.7877 17.205 59.0613 17.3167L58.475 17.4284C58.103 17.4929 57.7504 17.637 57.4427 17.8504C57.0731 17.6394 56.232 20.0226 57.0221 20.246C57.2216 20.5102 57.484 20.7232 57.7868 20.8666C58.0408 20.9949 58.3106 21.0909 58.5897 21.1522C59.9619 21.4326 61.3561 21.5986 62.7572 21.6486C68.0335 21.9217 73.2078 21.9093 78.4203 21.9217L93.9943 21.81L125.117 21.537C135.478 21.537 145.878 21.537 156.252 21.537L194.001 21.6735H192.243C172.246 21.959 156.468 22.0583 145.495 22.7782L144.463 22.8651L143.915 22.9396H143.8C143.689 22.9787 143.592 23.0475 143.52 23.1381C143.458 23.2717 143.442 23.421 143.474 23.5641C143.507 23.7071 143.585 23.8363 143.698 23.9325L143.851 23.9946H143.915C145.409 24.2819 146.929 24.4192 148.452 24.4042C155.143 24.3049 163.249 24.4042 172.361 24.4042L202.362 24.5035L338.079 24.7021L527.388 24.938L574.734 25C590.525 25 606.328 24.8883 622.119 24.8511L645.824 24.7517H657.677C658.658 24.7517 659.639 24.7517 660.646 24.7517H662.163H662.978C663.532 24.6787 664.07 24.5194 664.571 24.2801C666.687 22.6664 666.445 22.0831 665.616 21.7976C672.651 21.8845 679.776 22.021 687.091 21.9217C688.926 21.9217 690.774 21.8348 692.66 21.7231C693.604 21.661 694.547 21.599 695.528 21.4873L697.019 21.2763C697.567 21.1646 698.115 21.0529 698.663 20.9039C699.004 20.7989 699.336 20.6703 699.657 20.5191C700.042 20.3572 700.379 20.1054 700.64 19.7862C700.901 19.4669 701.077 19.0899 701.153 18.6886C701.228 18.2872 701.201 17.874 701.074 17.4853C700.946 17.0967 700.722 16.7446 700.422 16.4602C700.229 16.2782 700.005 16.1311 699.759 16.0258L700.167 15.9265L700.792 15.7527L701.11 15.6658L701.607 15.4424C701.862 15.2066 702.041 15.4425 702.882 14.2633C703.028 13.9634 703.112 13.6378 703.127 13.3059C703.142 12.9741 703.088 12.6427 702.969 12.3313C702.85 12.02 702.669 11.7351 702.435 11.4934C702.201 11.2517 701.919 11.0582 701.607 10.9243L701.276 10.8126C702.754 10.7133 704.245 10.5768 705.787 10.3533C706.476 10.2292 707.138 10.1796 707.852 9.99341L708.464 9.83204C708.591 9.83204 708.731 9.74511 708.974 9.6334C708.961 10.5643 711.255 7.12613 709.025 6.10831ZM707.177 6.02142C707.138 5.94694 707.126 5.92212 707.177 6.02142V6.02142Z" fill="#4633FF"/>
</svg>
