<?xml version="1.0" encoding="utf-8"?>
<!-- Generator: Adobe Illustrator 27.3.1, SVG Export Plug-In . SVG Version: 6.00 Build 0)  -->
<svg version="1.1" id="Layer_1" xmlns="http://www.w3.org/2000/svg" xmlns:xlink="http://www.w3.org/1999/xlink" x="0px" y="0px"
	 viewBox="0 0 64 64" style="enable-background:new 0 0 64 64;" xml:space="preserve">
<style type="text/css">
	.st0{fill:#213655;}
	.st1{fill:none;}
	.st2{fill:#D3C4B3;stroke:#000000;stroke-miterlimit:10;}
	.st3{fill:#2E5C6B;stroke:#000000;stroke-miterlimit:10;}
	.st4{fill:none;stroke:#000000;stroke-width:2;stroke-miterlimit:10;}
	.st5{fill:#6A98A4;stroke:#000000;stroke-miterlimit:10;}
	.st6{fill:#45717A;}
	.st7{fill:#B4937C;}
	.st8{fill:#E2D4C0;}
	.st9{fill:#764D79;}
	.st10{fill:#AEBFBF;}
	.st11{fill:#00A651;}
	.st12{fill:#3F3B61;}
	.st13{fill:#90A4AE;}
	.st14{fill:#2E5C6B;}
	.st15{fill:#6A98A4;}
	.st16{fill:#BFC0CD;}
	.st17{fill:#F1D2C4;}
	.st18{fill:#D3C4B3;}
	.st19{fill:#F7F1E9;}
	.st20{fill:#E2D4C0;stroke:#000000;stroke-miterlimit:10;}
	.st21{fill:#45717A;stroke:#000000;stroke-miterlimit:10;}
	.st22{fill:#B4937C;stroke:#000000;stroke-miterlimit:10;}
	.st23{fill:#BFC0CD;stroke:#000000;stroke-miterlimit:10;}
	.st24{fill:#764D79;stroke:#000000;stroke-miterlimit:10;}
	.st25{fill:#AEBFBF;stroke:#000000;stroke-miterlimit:10;}
	.st26{fill:#F1F2F2;stroke:#000000;stroke-miterlimit:10;}
	.st27{fill:#4D7293;}
	.st28{fill:#B3C8D3;}
	.st29{fill:#C5A67C;stroke:#000000;stroke-miterlimit:10;}
	.st30{fill:#62708F;}
	.st31{fill:#8FBCDB;}
	.st32{fill:#7B9DBA;}
	.st33{fill:#F1D2C4;stroke:#000000;stroke-miterlimit:10;}
	.st34{fill:#90A4AE;stroke:#000000;stroke-miterlimit:10;}
</style>
<rect x="472.94" y="-265.51" class="st0" width="841.89" height="595.28"/>
<rect x="-383.95" y="-260.01" class="st1" width="841.89" height="574.11"/>
<polygon class="st2" points="767.87,211.9 767.26,131.32 835.1,87.47 907.05,129.85 907.78,210.63 838.19,251.66 "/>
<polygon class="st3" points="773.81,208.59 773.44,134.76 835.48,94.43 901.06,133.09 901.55,207.11 837.92,244.85 "/>
<path class="st4" d="M-343.28-93.96"/>
<path class="st4" d="M-333.52,14.17"/>
<g>
	<g>
		<path class="st5" d="M634,221.67"/>
	</g>
	<g>
		<path class="st5" d="M493.35,262.23"/>
	</g>
	<g>
		<polygon class="st5" points="820.68,208.14 782.5,183.38 791.21,169.96 819.15,188.08 881.28,132.81 891.92,144.76 		"/>
	</g>
	<path class="st5" d="M715.05,204.17"/>
	<path class="st5" d="M786.28,140.8"/>
</g>
<rect x="-546.53" y="-199.65" class="st6" width="30.89" height="36.59"/>
<rect x="-486.37" y="-199.65" class="st7" width="36.59" height="36.59"/>
<rect x="-592.06" y="-199.65" class="st8" width="29.27" height="42.28"/>
<rect x="-583.12" y="-109.41" class="st9" width="29.27" height="40.65"/>
<rect x="-531.08" y="-106.16" class="st10" width="39.84" height="39.84"/>
<rect x="-216.59" y="382.31" class="st11" width="39.43" height="44.72"/>
<rect x="-583.12" y="-23.23" class="st12" width="29.27" height="37.4"/>
<rect x="-521.33" y="-23.23" class="st13" width="30.08" height="39.84"/>
<rect x="-298.23" y="384.74" class="st11" width="27.64" height="39.84"/>
<rect x="-577.42" y="54" class="st14" width="23.58" height="42.28"/>
<rect x="-521.33" y="56.44" class="st15" width="30.08" height="39.84"/>
<rect x="-618.08" y="329.64" class="st11" width="32.52" height="39.84"/>
<rect x="-572.55" y="145.87" class="st11" width="26.02" height="38.21"/>
<rect x="-506.29" y="145.87" class="st11" width="31.3" height="38.21"/>
<rect x="-544.5" y="330.45" class="st11" width="26.83" height="38.21"/>
<rect x="-572.55" y="224.74" class="st11" width="26.02" height="39.84"/>
<rect x="-511.16" y="224.74" class="st11" width="24.8" height="39.84"/>
<rect x="-481.49" y="330.04" class="st11" width="26.83" height="39.02"/>
<rect x="-103.34" y="383.52" class="st11" width="29.27" height="42.28"/>
<rect x="-625.39" y="-109.41" class="st16" width="23.58" height="40.65"/>
<rect x="-625.39" y="-19.17" class="st17" width="33.33" height="33.33"/>
<rect x="-613.6" y="54" class="st18" width="21.54" height="47.15"/>
<rect x="-605.88" y="145.87" class="st11" width="22.76" height="43.09"/>
<rect x="-613.6" y="231.24" class="st11" width="21.54" height="43.09"/>
<rect x="-594.5" y="-265.64" class="st19" width="21.95" height="35.9"/>
<rect x="-540.84" y="-272.82" class="st18" width="19.51" height="43.09"/>
<rect x="-498.77" y="-265.64" class="st14" width="23.78" height="31.84"/>
<rect x="-442.47" y="-265.64" class="st15" width="23.1" height="35.9"/>
<polygon class="st20" points="15.65,42.62 15.49,20.7 32.69,8.78 50.93,20.3 51.12,42.28 33.47,53.44 "/>
<polygon class="st21" points="17.17,41.71 17.07,21.65 32.79,10.68 49.41,21.19 49.53,41.31 33.41,51.57 "/>
<g>
	<g>
		<path class="st22" d="M-18.28,45.3"/>
	</g>
	<g>
		<path class="st22" d="M-53.98,56.35"/>
	</g>
	<g>
		<polygon class="st22" points="29.11,41.61 19.42,34.87 21.63,31.21 28.72,36.15 44.49,21.1 47.19,24.35 		"/>
	</g>
	<path class="st22" d="M2.29,40.53"/>
	<path class="st22" d="M20.38,23.27"/>
</g>
<polygon class="st23" points="699.05,40.82 698.44,-39.77 766.28,-83.61 838.23,-41.24 838.96,39.54 769.37,80.57 "/>
<polygon class="st24" points="704.99,37.5 704.61,-36.33 766.66,-76.65 832.24,-37.99 832.73,36.02 769.1,73.77 "/>
<g>
	<g>
		<path class="st25" d="M565.18,50.58"/>
	</g>
	<g>
		<path class="st25" d="M424.53,91.15"/>
	</g>
	<g>
		<polygon class="st25" points="751.86,37.05 713.68,12.29 722.39,-1.13 750.33,16.99 812.46,-38.28 823.09,-26.32 		"/>
	</g>
	<path class="st25" d="M646.22,33.08"/>
	<path class="st25" d="M717.46-30.29"/>
</g>
<polygon class="st26" points="1407.7,-75.06 1407.1,-154.42 1473.82,-197.6 1544.56,-155.87 1545.29,-76.32 1476.86,-35.91 "/>
<polygon class="st0" points="1413.54,-78.33 1413.18,-151.03 1474.18,-190.75 1538.68,-152.67 1539.16,-79.79 1476.59,-42.61 "/>
<g>
	<g>
		<path class="st19" d="M1276.06-65.44"/>
	</g>
	<g>
		<path class="st19" d="M1137.75-25.5"/>
	</g>
	<g>
		<polygon class="st19" points="1459.63,-78.77 1422.09,-103.15 1430.65,-116.37 1458.13,-98.53 1519.23,-152.96 1529.68,-141.18 		
			"/>
	</g>
	<path class="st19" d="M1355.76-82.68"/>
	<path class="st19" d="M1425.81-145.09"/>
</g>
<rect x="-618.08" y="412.94" class="st11" width="26.02" height="55.02"/>
<rect x="-553.85" y="412.94" class="st11" width="32.52" height="55.02"/>
<rect x="-456.29" y="412.94" class="st11" width="22.29" height="55.02"/>
<rect x="-608.73" y="506.68" class="st11" width="16.67" height="52.99"/>
<rect x="-546.53" y="506.68" class="st11" width="28.86" height="63.18"/>
<rect x="-456.29" y="518.91" class="st11" width="22.29" height="50.95"/>
<rect x="436.6" y="-256.23" class="st1" width="841.89" height="574.11"/>
<polygon class="st27" points="579.07,-85.22 578.45,-165.8 646.3,-209.65 718.25,-167.27 718.98,-86.49 649.39,-45.47 "/>
<polygon class="st28" points="585.01,-88.53 584.63,-162.36 646.67,-202.69 712.26,-164.03 712.74,-90.02 649.12,-52.27 "/>
<g>
	<g>
		<path class="st29" d="M982.11-103.98"/>
	</g>
	<g>
		<path class="st29" d="M841.46-63.42"/>
	</g>
	<g>
		<polygon class="st29" points="1168.79,-117.51 1130.62,-142.27 1139.32,-155.7 1167.27,-137.57 1229.39,-192.84 1240.03,-180.89 
					"/>
	</g>
	<path class="st29" d="M1063.16-121.48"/>
	<path class="st29" d="M1134.4-184.85"/>
</g>
<polygon class="st30" points="552.91,178.62 552.29,98.04 620.14,54.19 692.09,96.57 692.82,177.35 623.23,218.37 "/>
<polygon class="st31" points="558.85,175.31 558.47,101.48 620.51,61.15 686.1,99.81 686.59,173.82 622.96,211.57 "/>
<g>
	<g>
		<path class="st22" d="M419.04,188.39"/>
	</g>
	<g>
		<path class="st22" d="M278.38,228.95"/>
	</g>
	<g>
		<polygon class="st22" points="605.72,174.85 567.54,150.1 576.24,136.67 604.19,154.79 666.32,99.53 676.95,111.48 		"/>
	</g>
	<path class="st22" d="M500.08,170.89"/>
	<path class="st22" d="M571.32,107.51"/>
</g>
<polygon class="st23" points="981.26,73.55 980.64,-7.03 1048.49,-50.87 1120.44,-8.5 1121.17,72.28 1051.58,113.31 "/>
<polygon class="st32" points="987.2,70.24 986.82,-3.59 1048.86,-43.91 1114.45,-5.25 1114.93,68.76 1051.31,106.51 "/>
<g>
	<g>
		<path class="st25" d="M847.38,83.32"/>
	</g>
	<g>
		<path class="st25" d="M706.73,123.88"/>
	</g>
	<g>
		<polygon class="st25" points="1034.07,69.79 995.89,45.03 1004.59,31.61 1032.54,49.73 1094.67,-5.54 1105.3,6.42 		"/>
	</g>
	<path class="st25" d="M928.43,65.82"/>
	<path class="st25" d="M999.67,2.45"/>
</g>
<polygon class="st33" points="1078.86,-85.22 1078.25,-165.8 1146.1,-209.65 1218.04,-167.27 1218.77,-86.49 1149.18,-45.47 "/>
<polygon class="st12" points="1084.8,-88.53 1084.43,-162.36 1146.47,-202.69 1212.05,-164.03 1212.54,-90.02 1148.91,-52.27 "/>
<g>
	<g>
		<path class="st34" d="M944.99-75.45"/>
	</g>
	<g>
		<path class="st34" d="M804.34-34.89"/>
	</g>
	<g>
		<polygon class="st34" points="1131.67,-88.99 1093.49,-113.74 1102.2,-127.17 1130.14,-109.05 1192.27,-164.32 1202.91,-152.36 		
			"/>
	</g>
	<path class="st34" d="M1026.04-92.95"/>
	<path class="st34" d="M1097.27-156.33"/>
</g>
</svg>
