<svg width="77" height="40" viewBox="0 0 77 40" fill="none" xmlns="http://www.w3.org/2000/svg">
<path d="M33.785 15.3176C34.7424 15.2367 35.7133 15.0479 36.6707 15.0749C40.2981 15.1828 43.9119 15.3581 47.5393 15.4929C47.728 15.5064 47.9169 15.3311 48.0922 15.2502L48.0787 15.2367C50.2632 15.3311 52.4612 15.4929 54.6457 15.4929C59.7159 15.5064 64.7862 15.6277 69.8294 16.7065C70.6115 16.8683 71.96 16.9223 71.8656 19.9698C71.7712 23.1387 70.8273 24.9726 69.4518 24.8243C66.1211 24.4602 62.777 23.6646 59.4463 24.1366C54.5649 24.8378 49.7238 24.2984 44.8693 24.3658C40.5138 24.4197 36.1583 24.1635 31.7893 24.2444C27.6899 24.3253 23.5906 24.9187 19.4913 24.8108C15.9583 24.7029 12.4521 23.8399 8.91916 23.4893C8.08311 23.4084 7.20662 23.2196 6.39754 24.3658L6.41104 24.4063C5.48059 23.0039 4.30747 25.5659 3.41748 23.4893C3.09385 23.4219 2.77026 23.2196 2.44662 23.3275C0.990281 23.8129 0.62611 22.7072 1.17898 19.2281C1.30034 18.4595 1.20599 17.4617 1.55659 16.9358L1.58359 16.9897L1.57009 16.9358C2.60841 14.5894 3.79501 15.7491 4.88726 15.7356C10.2811 15.6143 15.6885 15.6952 21.0824 15.7086C24.3996 15.7086 27.7033 15.9244 31.0205 15.5738C31.924 15.4794 32.841 15.0479 33.758 15.3311L33.785 15.3176Z" fill="#4633FF"/>
<path d="M74.4966 15.4937C75.5484 16.4107 76.3575 17.3816 76.6676 18.6761L76.8026 19.4582C76.9374 20.7123 76.7081 21.9529 76.2362 22.9777C75.7642 24.016 75.0495 24.9465 74.0247 25.8365C72.9998 26.74 71.5975 27.4546 70.3299 28.2233L67.7948 29.7066C67.6599 29.7875 67.606 30.0167 67.5117 30.1785L67.5386 30.192C65.8531 31.1629 64.127 32.0664 62.4819 33.1047C58.6792 35.505 54.8226 37.8243 50.4805 39.3076C49.8063 39.5369 48.7679 40.1437 47.2172 37.5142C45.599 34.7768 45.3294 32.7811 46.4351 32.2552C49.1186 30.9741 52.0447 30.0707 54.2831 28.0749C55.9148 26.6186 57.7083 25.4185 59.5557 24.2992L62.3201 22.6406L63.6954 21.8046L64.3831 21.3731L64.5584 21.2652C64.6124 21.2247 64.5854 21.2382 64.6124 21.2247L64.6664 21.1708C64.8282 21.0225 64.99 20.9011 65.1653 20.7932C65.3271 20.6853 65.5159 20.51 65.462 20.2808C65.3676 19.9976 65.0169 19.9167 64.7607 19.8223C64.6798 19.7954 64.599 19.7819 64.5181 19.7819C64.4776 19.7819 64.4505 19.7819 64.3831 19.7684L63.7629 19.4852L61.2547 18.3795C59.5826 17.6513 57.924 16.8962 56.3598 15.9792C53.6494 14.4015 51.3165 12.163 48.7409 10.3696C48.1341 9.95155 47.5273 9.41216 46.3541 10.0729L46.3406 10.1134C46.2867 8.48172 44.1428 10.2482 44.4394 8.05021C44.2237 7.86143 44.0618 7.5378 43.7652 7.49734C42.3897 7.30856 42.6459 6.18933 44.736 3.37104C45.1945 2.75074 45.5991 1.8203 46.125 1.52364C48.0533 -0.0945207 48.4308 1.41576 49.2939 1.86075C53.5685 4.0183 57.7353 6.36463 61.956 8.64354L65.7991 10.7876C66.4463 11.1382 67.0935 11.4888 67.7543 11.7989L70.667 13.2148C72.0155 13.8351 73.8628 14.3745 74.4966 15.4803V15.4937Z" fill="#4633FF"/>
</svg>
