<svg width="101" height="184" viewBox="0 0 101 184" fill="none" xmlns="http://www.w3.org/2000/svg">
<path d="M43.3244 7.19516C47.5026 10.6392 51.6341 14.106 55.7657 17.5954C58.2866 19.7479 60.5975 22.1271 63.5386 23.8491C64.3322 24.3249 65.546 24.3703 65.9194 25.3219V25.2992C66.7598 25.8204 67.7168 26.2056 68.417 26.8627C71.078 29.3325 74.1825 31.553 76.4467 34.2267C76.5401 34.34 76.8435 34.2947 76.9836 34.4306C77.6838 35.0877 80.0414 37.5575 81.722 38.985C85.5968 42.2705 89.3315 45.6919 91.9458 50.2915C92.3426 51.0166 99.5553 59.5589 95.9139 63.2748C92.1325 67.1494 83.0758 61.1903 82.1888 60.1253C80.0647 57.5196 78.4308 54.3701 75.3263 52.8293C70.7746 50.5635 67.6934 46.7568 63.912 43.7206C60.5041 40.9789 57.4696 37.852 54.0384 35.133C50.8172 32.5953 46.9657 30.692 43.9546 27.905C41.3637 25.5032 39.683 22.1724 37.3955 19.4534C36.8587 18.8189 35.4581 18.8416 34.8279 18.1618C34.3144 17.5954 33.404 16.7344 33.1706 15.896C33.0773 15.5335 32.9839 15.1256 32.6337 15.0577C30.9531 14.7178 23.1802 5.88094 27.6152 1.39457C31.9102 -3.02383 39.7064 4.20425 43.3244 7.19516Z" fill="black"/>
<path d="M40.0772 87.0864C44.1154 88.1287 48.1535 89.2163 52.1684 90.3265C54.6426 91.0063 57.0001 92.0033 59.6378 92.1392C60.3614 92.1845 61.2717 91.6634 61.8086 92.2978C62.5789 92.3658 63.3959 92.2525 64.0961 92.5018C66.7338 93.4081 69.6749 93.8839 72.0791 95.1528C72.1725 95.1981 72.3825 95.0168 72.5226 95.0848C73.2228 95.3341 75.6504 96.3764 77.2843 96.8295C81.0657 97.8945 84.7771 99.0954 87.9516 101.86C88.4418 102.29 96.1213 106.346 94.4407 111.195C92.6901 116.248 84.3103 115.274 83.3533 114.775C81.0657 113.529 78.9883 111.558 76.2573 111.648C72.2425 111.784 68.9279 109.926 65.2632 109.042C61.972 108.249 58.8675 106.935 55.5763 106.187C52.4718 105.485 49.1105 105.598 46.1228 104.579C43.5552 103.695 41.3843 101.61 38.9568 100.319C38.3732 100.024 37.3462 100.681 36.6926 100.387C36.1557 100.138 35.2454 99.7978 34.8486 99.2087C34.6852 98.9594 34.4985 98.6422 34.2183 98.7328C32.8645 99.2087 24.6715 95.1755 26.7723 89.3069C28.803 83.529 36.5759 86.1801 40.0772 87.0864Z" fill="black"/>
<path d="M16.0785 169.819C21.8673 168.573 27.6561 167.395 33.4683 166.217C37.0396 165.492 40.6576 165.107 44.1122 163.815C45.0459 163.452 45.9095 162.546 46.9833 162.818H46.9599C47.9636 162.455 48.944 161.957 49.9711 161.776C53.8925 161.164 57.9073 160.008 61.7588 159.827C61.8988 159.827 62.0622 159.555 62.2956 159.51C63.346 159.351 67.0807 158.966 69.4383 158.49C74.9003 157.403 80.3857 156.474 86.1512 157.153C87.0615 157.267 99.3394 156.678 100.203 161.73C101.113 166.987 89.8859 170.59 88.3453 170.635C84.6573 170.771 80.8058 170.182 77.3746 171.7C72.356 173.921 66.9874 174.102 61.7821 175.257C57.1137 176.3 52.3519 176.844 47.6835 177.931C43.3186 178.951 39.0937 180.854 34.6587 181.557C30.8306 182.168 26.7691 181.511 22.871 181.692C21.9607 181.738 21.027 182.848 20.0466 182.939C19.2296 183.007 17.8525 183.211 16.9655 182.893C16.592 182.757 16.1718 182.576 15.8684 182.825C14.4445 183.958 1.5364 184.819 0.509357 178.679C-0.447665 172.742 11.0599 170.907 16.0785 169.819Z" fill="black"/>
</svg>
