<svg width="122" height="189" viewBox="0 0 122 189" fill="none" xmlns="http://www.w3.org/2000/svg">
<path d="M17.7191 73.9009C24.6166 68.3189 31.5674 62.7903 38.5004 57.2439C42.7669 53.8485 47.1934 50.6664 51.1577 46.9154C52.2421 45.8844 53.0598 44.4978 54.4642 43.8578L54.4464 43.8756C55.6019 42.809 56.6863 41.6179 57.9485 40.6757C62.6949 37.067 67.4058 32.9783 72.1701 29.7784C72.3656 29.654 72.49 29.3162 72.7567 29.1207C74.0189 28.1607 78.5876 24.8897 81.4141 22.632C87.9561 17.4412 94.5513 12.357 101.929 8.28604C103.084 7.64606 118.266 -2.59354 120.684 0.624098C123.208 3.96618 110.088 15.7168 108.204 16.9612C103.618 20.0188 98.6578 22.6143 94.7824 26.5252C89.1115 32.2494 82.4274 36.6581 76.241 41.7068C70.6768 46.2399 64.8637 50.4531 59.3351 55.004C54.1442 59.2883 49.3622 64.1236 44.0113 68.1945C39.3893 71.7143 34.1628 74.4342 29.3275 77.6874C28.1898 78.4518 27.3365 80.0518 26.1099 80.9051C25.0966 81.6161 23.4433 82.8606 22.2522 83.3405C21.7367 83.5539 21.1856 83.7316 20.8656 84.1583C19.3901 86.1493 3.46195 97.1355 0.599857 93.189C-2.19113 89.3491 11.7283 78.754 17.7191 73.9009Z" fill="black"/>
<path d="M30.9759 105.953C35.5445 103.962 40.131 102.024 44.7175 100.104C47.5263 98.9133 50.4417 97.9889 53.0905 96.3712C53.8193 95.9268 54.3704 95.0735 55.2948 95.0912H55.277C56.0414 94.6468 56.7703 94.0779 57.6058 93.758C60.7346 92.5847 63.8633 91.0025 66.9921 90.1848C67.1165 90.1492 67.2054 89.9181 67.3832 89.847C68.2187 89.5448 71.223 88.5848 73.0896 87.8026C77.4094 86.0072 81.7648 84.3184 86.5823 83.8384C87.329 83.7673 97.3019 81.154 98.7418 84.905C100.235 88.8159 91.5243 93.5802 90.2799 93.8824C87.2756 94.6468 84.0402 94.8601 81.4448 96.6378C77.6583 99.251 73.2851 100.335 69.1786 102.149C65.4988 103.784 61.6768 105.029 58.0147 106.7C54.566 108.264 51.3839 110.468 47.8462 111.802C44.8064 112.939 41.3932 113.153 38.2111 113.97C37.4645 114.166 36.8778 115.197 36.0601 115.428C35.3846 115.624 34.3002 116.015 33.5358 115.944C33.198 115.908 32.8425 115.837 32.6291 116.086C31.6336 117.206 21.1629 120.157 19.4741 115.57C17.8386 111.108 27.0294 107.677 30.9759 105.953Z" fill="black"/>
<path d="M50.2624 135.301C53.6934 134.429 57.1243 133.594 60.5553 132.776C62.6707 132.278 64.8217 132.03 66.8305 131.087C67.3816 130.821 67.8438 130.127 68.5016 130.359H68.4838C69.0705 130.092 69.6393 129.719 70.2437 129.612C72.5725 129.185 74.9369 128.368 77.2301 128.296C77.319 128.296 77.4079 128.083 77.5323 128.065C78.1545 127.959 80.3766 127.71 81.781 127.39C85.0164 126.625 88.2696 126.003 91.7539 126.625C92.305 126.714 99.6469 126.465 100.411 130.412C101.193 134.518 94.5982 137.132 93.6916 137.149C91.4695 137.203 89.1407 136.669 87.1497 137.807C84.2342 139.46 81.0166 139.514 77.9412 140.331C75.1857 141.078 72.3414 141.398 69.586 142.18C67.0083 142.909 64.5551 144.313 61.9241 144.793C59.6486 145.202 57.1954 144.633 54.8489 144.705C54.2978 144.722 53.8 145.576 53.1956 145.629C52.6978 145.665 51.8979 145.807 51.3468 145.558C51.1157 145.451 50.8668 145.309 50.689 145.487C49.8891 146.34 42.1561 146.802 41.285 142.003C40.4495 137.309 47.2936 136.065 50.2624 135.301Z" fill="black"/>
<path d="M42.919 177.631C45.2833 177.329 47.6477 177.08 50.012 176.849C51.4697 176.706 52.9274 176.813 54.3496 176.209C54.7407 176.049 55.114 175.426 55.5406 175.764C55.9495 175.604 56.3584 175.32 56.785 175.32C58.385 175.284 60.0382 174.875 61.5671 175.177C61.6204 175.195 61.7092 175 61.7981 175C62.2248 175 63.7358 175.124 64.6958 175.035C66.9179 174.822 69.1578 174.733 71.4333 175.924C71.7888 176.102 76.7308 177.062 76.8731 181.079C77.033 185.257 72.3932 186.75 71.7888 186.626C70.3133 186.306 68.7845 185.399 67.3623 186.199C65.2647 187.355 63.1136 186.875 60.9982 187.177C59.096 187.444 57.1583 187.319 55.2562 187.621C53.4607 187.906 51.7008 188.901 49.9053 188.937C48.3587 188.972 46.7588 187.995 45.1944 187.693C44.8211 187.621 44.4122 188.386 44.0211 188.333C43.6834 188.297 43.1323 188.279 42.7945 187.959C42.6523 187.817 42.4923 187.621 42.3501 187.781C41.7457 188.493 36.537 187.675 36.377 182.804C36.1815 177.968 40.8568 177.88 42.919 177.631Z" fill="black"/>
</svg>
