<svg width="128" height="164" viewBox="0 0 128 164" fill="none" xmlns="http://www.w3.org/2000/svg">
<path fill-rule="evenodd" clip-rule="evenodd" d="M76.6575 77.9464L76.6585 77.9359C74.2461 78.6069 71.801 79.1774 69.351 79.7491C67.6895 80.1367 66.0258 80.5249 64.3685 80.9454C64.3927 81.0376 64.4175 81.1298 64.4423 81.2219L64.443 81.2244C64.7201 82.2549 64.996 83.2813 64.5086 84.2644C64.5526 84.8043 64.6256 85.3479 64.6986 85.8914C64.8376 86.9263 64.9765 87.9606 64.915 88.968C64.7985 90.5372 64.7371 92.1262 64.694 93.7199C66.501 93.2515 68.3048 92.8592 70.1032 92.6892C70.1774 92.6892 70.2517 92.6047 70.3359 92.5089C70.4299 92.402 70.5363 92.2809 70.669 92.2477C71.0337 92.1586 71.695 92.0324 72.5107 91.8767C73.4333 91.7007 74.5534 91.4869 75.6646 91.2467C75.6886 90.8033 75.7096 90.3595 75.7269 89.9153C75.8654 85.9198 76.2613 81.9339 76.6574 77.947L76.6574 77.9467L76.6575 77.9464ZM97.3754 87.678C97.4418 86.7555 97.5012 85.8287 97.5607 84.9011C97.707 82.6181 97.8537 80.3301 98.1059 78.0882C98.216 77.0057 98.1102 75.8922 98.0045 74.7803L98.0045 74.7802C97.9603 74.3143 97.916 73.8487 97.8877 73.3858C98.3002 72.6382 98.2425 71.8468 98.0817 71.0486C98.5773 70.784 99.068 70.5034 99.553 70.2048C102.645 68.3155 106.201 67.996 109.75 67.677C111 67.5647 112.249 67.4524 113.477 67.2717C115.426 66.9879 129.256 60.5224 127.213 53.3947C125.478 47.3984 113.247 48.5441 109.462 48.8987L109.462 48.8987C108.927 48.9488 108.561 48.9831 108.417 48.9792C105.212 48.912 102.133 49.2407 99.1315 49.8063C99.9426 42.0303 100.866 34.2763 101.815 26.5223C101.916 25.612 102.055 24.5675 102.205 23.4306L102.205 23.4281L102.205 23.4272C103.311 15.0709 105.075 1.73427 97.8545 0.124307C89.3995 -1.70494 84.0247 17.2183 84.9048 19.8361C85.0755 20.3499 84.7312 20.8121 84.4079 21.2459L84.3603 21.3099C84.3528 21.3201 84.3453 21.3302 84.3378 21.3404C84.3277 21.3541 84.3176 21.3678 84.3076 21.3815C83.5623 22.4169 83.1569 24.2129 82.8768 25.4541C82.8497 25.5739 82.8238 25.6886 82.7989 25.7969C82.6085 26.5453 82.7866 27.3903 82.9611 28.218C83.1323 29.0297 83.2999 29.8248 83.1132 30.4962C82.5266 32.6703 81.7759 34.8262 81.0243 36.9846C79.8024 40.4935 78.5782 44.0093 78.0527 47.6217C77.6695 50.2761 77.5537 52.9694 77.5332 55.6749C74.7051 56.0753 71.856 56.886 69.0051 57.6973C67.7008 58.0685 66.3961 58.4398 65.0929 58.7719C65.6439 51.4792 66.3218 44.2041 67.0209 36.929C67.1039 35.9133 67.2301 34.7323 67.3678 33.4433L67.3679 33.4431C68.2738 24.9663 69.6784 11.8243 62.5576 10.3733C58.3144 9.55334 54.9198 13.9057 52.6882 18.8573C50.5194 23.8089 49.5136 29.2966 49.9537 30.5897C50.1254 31.1067 49.8019 31.5714 49.4816 32.0314L49.4813 32.0318C49.4672 32.0521 49.453 32.0724 49.4389 32.0927C49.4218 32.1174 49.4048 32.142 49.3879 32.1667C48.7187 33.1604 48.3687 34.8174 48.1048 36.0665L48.1047 36.0671C48.0588 36.2846 48.0154 36.4897 47.9735 36.6767C47.7983 37.444 48.0025 38.3004 48.2016 39.135C48.3953 39.9472 48.584 40.7387 48.4135 41.4075C47.8873 43.5782 47.2132 45.7313 46.5385 47.8865L46.5385 47.8865L46.5385 47.8866C45.3995 51.5246 44.2588 55.1683 43.8245 58.9116C43.5949 61.0047 43.5254 63.1154 43.5373 65.2338C43.3817 65.261 43.2262 65.2885 43.0709 65.3163C35.9045 66.6409 28.7067 67.6187 21.5404 68.1233C20.5361 68.2039 19.336 68.2588 18.0244 68.3187H18.0242C15.2307 68.4464 11.9307 68.5973 8.9364 69.0694C4.536 69.8264 0.701379 71.4033 0.0727514 75.6295C-0.587307 79.8557 3.34161 83.0411 7.89915 84.7127C12.4253 86.4473 17.4228 86.5735 18.4915 85.9742C18.9524 85.7276 19.4434 86.0235 19.9056 86.302L19.9374 86.3212C20.8903 86.8258 22.3783 86.8831 23.5001 86.9263H23.5003C23.7105 86.9344 23.9078 86.942 24.0863 86.9519C24.7856 86.9846 25.5101 86.6457 26.2163 86.3154C26.8751 86.0073 27.5179 85.7067 28.1095 85.7219C29.866 85.8275 31.6437 86.0496 33.4271 86.2724C36.8574 86.7009 40.3092 87.1322 43.6734 86.742C43.623 87.6549 43.5696 88.5674 43.5163 89.4799L43.5162 89.4807L43.5162 89.4809C43.2901 93.3461 43.064 97.2091 43.0668 101.088C42.6122 101.191 42.1572 101.291 41.7025 101.391C40.731 101.605 39.7606 101.818 38.7976 102.056L19.3416 106.819C18.7621 106.965 18.1047 107.117 17.3929 107.282C11.1926 108.721 0.863696 111.117 1.99147 118.614C3.28016 127.193 18.21 126.467 19.7816 124.89C20.097 124.603 20.5171 124.787 20.9224 124.966C20.9614 124.983 21.0002 125 21.0388 125.016C21.9833 125.419 23.3707 125.271 24.3232 125.17C24.4168 125.161 24.5062 125.151 24.5906 125.143C25.1681 125.08 25.6992 124.667 26.2184 124.264C26.7446 123.855 27.2587 123.455 27.7966 123.44C29.5245 123.367 31.2896 123.457 33.0562 123.548C35.8848 123.692 38.717 123.838 41.4064 123.313C41.9825 123.203 42.5538 123.07 43.1211 122.92C43.2708 124.092 43.4697 125.264 43.7302 126.436C44.6433 130.513 44.0147 134.607 43.3853 138.705C43.1481 140.25 42.9108 141.795 42.7559 143.341C42.5987 144.508 43.2588 149.586 44.8618 154.316C46.4962 159.047 49.105 163.4 52.8139 163.242C56.3656 163.084 58.4716 158.385 59.7288 153.623C60.6833 150.179 61.1777 146.67 61.4496 144.74C61.5538 144.001 61.6253 143.493 61.6776 143.309C63.7846 135.101 63.7534 126.955 63.7219 118.748L63.7206 118.394C63.7028 117.715 63.7085 116.964 63.73 116.184C63.8011 116.167 63.8722 116.15 63.9433 116.134C66.6856 115.491 69.425 114.85 72.1148 114.009C73.0997 113.701 74.0944 113.43 75.0937 113.175C75.1426 113.517 75.1964 113.858 75.2554 114.2C75.9636 118.258 75.1108 122.249 74.2542 126.258C73.9323 127.764 73.6099 129.273 73.3695 130.79C72.9609 133.092 74.8154 150.943 82.2646 151.037C88.2649 151.118 90.9549 138.027 91.9107 133.376C92.0765 132.569 92.19 132.017 92.2597 131.83C94.8371 123.693 95.2457 115.462 95.5914 107.23C95.598 106.983 95.608 106.727 95.621 106.463C96.6265 106.362 97.647 106.313 98.6686 106.263C99.7964 106.209 100.926 106.154 102.037 106.03C103.829 105.872 116.119 99.9431 114.013 92.7838C112.289 86.8521 101.628 87.4482 98.216 87.639C97.8412 87.66 97.5538 87.676 97.3754 87.678Z" fill="black"/>
</svg>
